M48
INCH,TZ
T1C0.0157
T2C0.0295
T3C0.0300
T4C0.0394
%
G90
G05
T1
X55546Y-36236
X59124Y-37996
X59924Y-36096
X63524Y-37996
X64324Y-36096
X67888Y-38126
X68764Y-36226
X72288Y-38145
X73154Y-36216
X76687Y-38165
X77516Y-36260
X81063Y-38189
X81921Y-36248
X85425Y-38173
X86327Y-36280
X89839Y-38157
X90693Y-36252
X94283Y-38181
X95102Y-36268
X98626Y-38150
X99484Y-36264
X103016Y-38161
X103882Y-36264
X107409Y-38154
X108252Y-36280
T2
X110722Y-36705
X110722Y-37205
X110722Y-37705
T3
X23717Y-32224
X23717Y-42224
X24717Y-32224
X24717Y-42224
X25717Y-32224
X25717Y-42224
X26717Y-32224
X26717Y-42224
X27717Y-32224
X27717Y-42224
X28717Y-32224
X28717Y-42224
X29717Y-32224
X29717Y-42224
X30717Y-32224
X30717Y-42224
X31717Y-32224
X31717Y-42224
X32717Y-32224
X32717Y-42224
X33717Y-32224
X33717Y-42224
X34717Y-32224
X34717Y-42224
X35717Y-32224
X35717Y-42224
X36717Y-32224
X36717Y-42224
X37717Y-32224
X37717Y-42224
T4
X52854Y-33130
X52854Y-34130
T0
M30
