%TF.GenerationSoftware,KiCad,Pcbnew,(6.0.1)*%
%TF.CreationDate,2022-02-04T16:43:36-05:00*%
%TF.ProjectId,fan,66616e2e-6b69-4636-9164-5f7063625858,rev?*%
%TF.SameCoordinates,Original*%
%TF.FileFunction,Legend,Top*%
%TF.FilePolarity,Positive*%
%FSLAX46Y46*%
G04 Gerber Fmt 4.6, Leading zero omitted, Abs format (unit mm)*
G04 Created by KiCad (PCBNEW (6.0.1)) date 2022-02-04 16:43:36*
%MOMM*%
%LPD*%
G01*
G04 APERTURE LIST*
%ADD10C,0.150000*%
%ADD11C,0.120000*%
%ADD12C,1.000000*%
%ADD13C,0.800000*%
G04 APERTURE END LIST*
D10*
%TO.C,U1*%
X84782380Y-95311904D02*
X85591904Y-95311904D01*
X85687142Y-95264285D01*
X85734761Y-95216666D01*
X85782380Y-95121428D01*
X85782380Y-94930952D01*
X85734761Y-94835714D01*
X85687142Y-94788095D01*
X85591904Y-94740476D01*
X84782380Y-94740476D01*
X85782380Y-93740476D02*
X85782380Y-94311904D01*
X85782380Y-94026190D02*
X84782380Y-94026190D01*
X84925238Y-94121428D01*
X85020476Y-94216666D01*
X85068095Y-94311904D01*
X56048571Y-89191904D02*
X56048571Y-88858571D01*
X56572380Y-88715714D02*
X56572380Y-89191904D01*
X55572380Y-89191904D01*
X55572380Y-88715714D01*
X55905714Y-88287142D02*
X56572380Y-88287142D01*
X56000952Y-88287142D02*
X55953333Y-88239523D01*
X55905714Y-88144285D01*
X55905714Y-88001428D01*
X55953333Y-87906190D01*
X56048571Y-87858571D01*
X56572380Y-87858571D01*
X56572380Y-86953809D02*
X56048571Y-86953809D01*
X55953333Y-87001428D01*
X55905714Y-87096666D01*
X55905714Y-87287142D01*
X55953333Y-87382380D01*
X56524761Y-86953809D02*
X56572380Y-87049047D01*
X56572380Y-87287142D01*
X56524761Y-87382380D01*
X56429523Y-87430000D01*
X56334285Y-87430000D01*
X56239047Y-87382380D01*
X56191428Y-87287142D01*
X56191428Y-87049047D01*
X56143809Y-86953809D01*
X56572380Y-86477619D02*
X55572380Y-86477619D01*
X55953333Y-86477619D02*
X55905714Y-86382380D01*
X55905714Y-86191904D01*
X55953333Y-86096666D01*
X56000952Y-86049047D01*
X56096190Y-86001428D01*
X56381904Y-86001428D01*
X56477142Y-86049047D01*
X56524761Y-86096666D01*
X56572380Y-86191904D01*
X56572380Y-86382380D01*
X56524761Y-86477619D01*
X56572380Y-85430000D02*
X56524761Y-85525238D01*
X56429523Y-85572857D01*
X55572380Y-85572857D01*
X56524761Y-84668095D02*
X56572380Y-84763333D01*
X56572380Y-84953809D01*
X56524761Y-85049047D01*
X56429523Y-85096666D01*
X56048571Y-85096666D01*
X55953333Y-85049047D01*
X55905714Y-84953809D01*
X55905714Y-84763333D01*
X55953333Y-84668095D01*
X56048571Y-84620476D01*
X56143809Y-84620476D01*
X56239047Y-85096666D01*
X56048571Y-103289047D02*
X56096190Y-103146190D01*
X56143809Y-103098571D01*
X56239047Y-103050952D01*
X56381904Y-103050952D01*
X56477142Y-103098571D01*
X56524761Y-103146190D01*
X56572380Y-103241428D01*
X56572380Y-103622380D01*
X55572380Y-103622380D01*
X55572380Y-103289047D01*
X55620000Y-103193809D01*
X55667619Y-103146190D01*
X55762857Y-103098571D01*
X55858095Y-103098571D01*
X55953333Y-103146190D01*
X56000952Y-103193809D01*
X56048571Y-103289047D01*
X56048571Y-103622380D01*
X56572380Y-102479523D02*
X56524761Y-102574761D01*
X56477142Y-102622380D01*
X56381904Y-102670000D01*
X56096190Y-102670000D01*
X56000952Y-102622380D01*
X55953333Y-102574761D01*
X55905714Y-102479523D01*
X55905714Y-102336666D01*
X55953333Y-102241428D01*
X56000952Y-102193809D01*
X56096190Y-102146190D01*
X56381904Y-102146190D01*
X56477142Y-102193809D01*
X56524761Y-102241428D01*
X56572380Y-102336666D01*
X56572380Y-102479523D01*
X56572380Y-101574761D02*
X56524761Y-101670000D01*
X56477142Y-101717619D01*
X56381904Y-101765238D01*
X56096190Y-101765238D01*
X56000952Y-101717619D01*
X55953333Y-101670000D01*
X55905714Y-101574761D01*
X55905714Y-101431904D01*
X55953333Y-101336666D01*
X56000952Y-101289047D01*
X56096190Y-101241428D01*
X56381904Y-101241428D01*
X56477142Y-101289047D01*
X56524761Y-101336666D01*
X56572380Y-101431904D01*
X56572380Y-101574761D01*
X55905714Y-100955714D02*
X55905714Y-100574761D01*
X55572380Y-100812857D02*
X56429523Y-100812857D01*
X56524761Y-100765238D01*
X56572380Y-100670000D01*
X56572380Y-100574761D01*
X51762380Y-95811904D02*
X52571904Y-95811904D01*
X52667142Y-95764285D01*
X52714761Y-95716666D01*
X52762380Y-95621428D01*
X52762380Y-95430952D01*
X52714761Y-95335714D01*
X52667142Y-95288095D01*
X52571904Y-95240476D01*
X51762380Y-95240476D01*
X52714761Y-94811904D02*
X52762380Y-94669047D01*
X52762380Y-94430952D01*
X52714761Y-94335714D01*
X52667142Y-94288095D01*
X52571904Y-94240476D01*
X52476666Y-94240476D01*
X52381428Y-94288095D01*
X52333809Y-94335714D01*
X52286190Y-94430952D01*
X52238571Y-94621428D01*
X52190952Y-94716666D01*
X52143333Y-94764285D01*
X52048095Y-94811904D01*
X51952857Y-94811904D01*
X51857619Y-94764285D01*
X51810000Y-94716666D01*
X51762380Y-94621428D01*
X51762380Y-94383333D01*
X51810000Y-94240476D01*
X52238571Y-93478571D02*
X52286190Y-93335714D01*
X52333809Y-93288095D01*
X52429047Y-93240476D01*
X52571904Y-93240476D01*
X52667142Y-93288095D01*
X52714761Y-93335714D01*
X52762380Y-93430952D01*
X52762380Y-93811904D01*
X51762380Y-93811904D01*
X51762380Y-93478571D01*
X51810000Y-93383333D01*
X51857619Y-93335714D01*
X51952857Y-93288095D01*
X52048095Y-93288095D01*
X52143333Y-93335714D01*
X52190952Y-93383333D01*
X52238571Y-93478571D01*
X52238571Y-93811904D01*
%TO.C,D12*%
X203040714Y-89952380D02*
X203040714Y-88952380D01*
X203278809Y-88952380D01*
X203421666Y-89000000D01*
X203516904Y-89095238D01*
X203564523Y-89190476D01*
X203612142Y-89380952D01*
X203612142Y-89523809D01*
X203564523Y-89714285D01*
X203516904Y-89809523D01*
X203421666Y-89904761D01*
X203278809Y-89952380D01*
X203040714Y-89952380D01*
X204564523Y-89952380D02*
X203993095Y-89952380D01*
X204278809Y-89952380D02*
X204278809Y-88952380D01*
X204183571Y-89095238D01*
X204088333Y-89190476D01*
X203993095Y-89238095D01*
X204945476Y-89047619D02*
X204993095Y-89000000D01*
X205088333Y-88952380D01*
X205326428Y-88952380D01*
X205421666Y-89000000D01*
X205469285Y-89047619D01*
X205516904Y-89142857D01*
X205516904Y-89238095D01*
X205469285Y-89380952D01*
X204897857Y-89952380D01*
X205516904Y-89952380D01*
%TO.C,D2*%
X147641904Y-89952380D02*
X147641904Y-88952380D01*
X147880000Y-88952380D01*
X148022857Y-89000000D01*
X148118095Y-89095238D01*
X148165714Y-89190476D01*
X148213333Y-89380952D01*
X148213333Y-89523809D01*
X148165714Y-89714285D01*
X148118095Y-89809523D01*
X148022857Y-89904761D01*
X147880000Y-89952380D01*
X147641904Y-89952380D01*
X148594285Y-89047619D02*
X148641904Y-89000000D01*
X148737142Y-88952380D01*
X148975238Y-88952380D01*
X149070476Y-89000000D01*
X149118095Y-89047619D01*
X149165714Y-89142857D01*
X149165714Y-89238095D01*
X149118095Y-89380952D01*
X148546666Y-89952380D01*
X149165714Y-89952380D01*
%TO.C,D4*%
X158801904Y-89952380D02*
X158801904Y-88952380D01*
X159040000Y-88952380D01*
X159182857Y-89000000D01*
X159278095Y-89095238D01*
X159325714Y-89190476D01*
X159373333Y-89380952D01*
X159373333Y-89523809D01*
X159325714Y-89714285D01*
X159278095Y-89809523D01*
X159182857Y-89904761D01*
X159040000Y-89952380D01*
X158801904Y-89952380D01*
X160230476Y-89285714D02*
X160230476Y-89952380D01*
X159992380Y-88904761D02*
X159754285Y-89619047D01*
X160373333Y-89619047D01*
%TO.C,D3*%
X153221904Y-89952380D02*
X153221904Y-88952380D01*
X153460000Y-88952380D01*
X153602857Y-89000000D01*
X153698095Y-89095238D01*
X153745714Y-89190476D01*
X153793333Y-89380952D01*
X153793333Y-89523809D01*
X153745714Y-89714285D01*
X153698095Y-89809523D01*
X153602857Y-89904761D01*
X153460000Y-89952380D01*
X153221904Y-89952380D01*
X154126666Y-88952380D02*
X154745714Y-88952380D01*
X154412380Y-89333333D01*
X154555238Y-89333333D01*
X154650476Y-89380952D01*
X154698095Y-89428571D01*
X154745714Y-89523809D01*
X154745714Y-89761904D01*
X154698095Y-89857142D01*
X154650476Y-89904761D01*
X154555238Y-89952380D01*
X154269523Y-89952380D01*
X154174285Y-89904761D01*
X154126666Y-89857142D01*
%TO.C,D5*%
X164381904Y-89952380D02*
X164381904Y-88952380D01*
X164620000Y-88952380D01*
X164762857Y-89000000D01*
X164858095Y-89095238D01*
X164905714Y-89190476D01*
X164953333Y-89380952D01*
X164953333Y-89523809D01*
X164905714Y-89714285D01*
X164858095Y-89809523D01*
X164762857Y-89904761D01*
X164620000Y-89952380D01*
X164381904Y-89952380D01*
X165858095Y-88952380D02*
X165381904Y-88952380D01*
X165334285Y-89428571D01*
X165381904Y-89380952D01*
X165477142Y-89333333D01*
X165715238Y-89333333D01*
X165810476Y-89380952D01*
X165858095Y-89428571D01*
X165905714Y-89523809D01*
X165905714Y-89761904D01*
X165858095Y-89857142D01*
X165810476Y-89904761D01*
X165715238Y-89952380D01*
X165477142Y-89952380D01*
X165381904Y-89904761D01*
X165334285Y-89857142D01*
%TO.C,D7*%
X175541904Y-89952380D02*
X175541904Y-88952380D01*
X175780000Y-88952380D01*
X175922857Y-89000000D01*
X176018095Y-89095238D01*
X176065714Y-89190476D01*
X176113333Y-89380952D01*
X176113333Y-89523809D01*
X176065714Y-89714285D01*
X176018095Y-89809523D01*
X175922857Y-89904761D01*
X175780000Y-89952380D01*
X175541904Y-89952380D01*
X176446666Y-88952380D02*
X177113333Y-88952380D01*
X176684761Y-89952380D01*
%TO.C,D20*%
X247775714Y-89952380D02*
X247775714Y-88952380D01*
X248013809Y-88952380D01*
X248156666Y-89000000D01*
X248251904Y-89095238D01*
X248299523Y-89190476D01*
X248347142Y-89380952D01*
X248347142Y-89523809D01*
X248299523Y-89714285D01*
X248251904Y-89809523D01*
X248156666Y-89904761D01*
X248013809Y-89952380D01*
X247775714Y-89952380D01*
X248728095Y-89047619D02*
X248775714Y-89000000D01*
X248870952Y-88952380D01*
X249109047Y-88952380D01*
X249204285Y-89000000D01*
X249251904Y-89047619D01*
X249299523Y-89142857D01*
X249299523Y-89238095D01*
X249251904Y-89380952D01*
X248680476Y-89952380D01*
X249299523Y-89952380D01*
X249918571Y-88952380D02*
X250013809Y-88952380D01*
X250109047Y-89000000D01*
X250156666Y-89047619D01*
X250204285Y-89142857D01*
X250251904Y-89333333D01*
X250251904Y-89571428D01*
X250204285Y-89761904D01*
X250156666Y-89857142D01*
X250109047Y-89904761D01*
X250013809Y-89952380D01*
X249918571Y-89952380D01*
X249823333Y-89904761D01*
X249775714Y-89857142D01*
X249728095Y-89761904D01*
X249680476Y-89571428D01*
X249680476Y-89333333D01*
X249728095Y-89142857D01*
X249775714Y-89047619D01*
X249823333Y-89000000D01*
X249918571Y-88952380D01*
%TO.C,D8*%
X181121904Y-89952380D02*
X181121904Y-88952380D01*
X181360000Y-88952380D01*
X181502857Y-89000000D01*
X181598095Y-89095238D01*
X181645714Y-89190476D01*
X181693333Y-89380952D01*
X181693333Y-89523809D01*
X181645714Y-89714285D01*
X181598095Y-89809523D01*
X181502857Y-89904761D01*
X181360000Y-89952380D01*
X181121904Y-89952380D01*
X182264761Y-89380952D02*
X182169523Y-89333333D01*
X182121904Y-89285714D01*
X182074285Y-89190476D01*
X182074285Y-89142857D01*
X182121904Y-89047619D01*
X182169523Y-89000000D01*
X182264761Y-88952380D01*
X182455238Y-88952380D01*
X182550476Y-89000000D01*
X182598095Y-89047619D01*
X182645714Y-89142857D01*
X182645714Y-89190476D01*
X182598095Y-89285714D01*
X182550476Y-89333333D01*
X182455238Y-89380952D01*
X182264761Y-89380952D01*
X182169523Y-89428571D01*
X182121904Y-89476190D01*
X182074285Y-89571428D01*
X182074285Y-89761904D01*
X182121904Y-89857142D01*
X182169523Y-89904761D01*
X182264761Y-89952380D01*
X182455238Y-89952380D01*
X182550476Y-89904761D01*
X182598095Y-89857142D01*
X182645714Y-89761904D01*
X182645714Y-89571428D01*
X182598095Y-89476190D01*
X182550476Y-89428571D01*
X182455238Y-89380952D01*
%TO.C,D23*%
X264505714Y-89952380D02*
X264505714Y-88952380D01*
X264743809Y-88952380D01*
X264886666Y-89000000D01*
X264981904Y-89095238D01*
X265029523Y-89190476D01*
X265077142Y-89380952D01*
X265077142Y-89523809D01*
X265029523Y-89714285D01*
X264981904Y-89809523D01*
X264886666Y-89904761D01*
X264743809Y-89952380D01*
X264505714Y-89952380D01*
X265458095Y-89047619D02*
X265505714Y-89000000D01*
X265600952Y-88952380D01*
X265839047Y-88952380D01*
X265934285Y-89000000D01*
X265981904Y-89047619D01*
X266029523Y-89142857D01*
X266029523Y-89238095D01*
X265981904Y-89380952D01*
X265410476Y-89952380D01*
X266029523Y-89952380D01*
X266362857Y-88952380D02*
X266981904Y-88952380D01*
X266648571Y-89333333D01*
X266791428Y-89333333D01*
X266886666Y-89380952D01*
X266934285Y-89428571D01*
X266981904Y-89523809D01*
X266981904Y-89761904D01*
X266934285Y-89857142D01*
X266886666Y-89904761D01*
X266791428Y-89952380D01*
X266505714Y-89952380D01*
X266410476Y-89904761D01*
X266362857Y-89857142D01*
%TO.C,D9*%
X186701904Y-89952380D02*
X186701904Y-88952380D01*
X186940000Y-88952380D01*
X187082857Y-89000000D01*
X187178095Y-89095238D01*
X187225714Y-89190476D01*
X187273333Y-89380952D01*
X187273333Y-89523809D01*
X187225714Y-89714285D01*
X187178095Y-89809523D01*
X187082857Y-89904761D01*
X186940000Y-89952380D01*
X186701904Y-89952380D01*
X187749523Y-89952380D02*
X187940000Y-89952380D01*
X188035238Y-89904761D01*
X188082857Y-89857142D01*
X188178095Y-89714285D01*
X188225714Y-89523809D01*
X188225714Y-89142857D01*
X188178095Y-89047619D01*
X188130476Y-89000000D01*
X188035238Y-88952380D01*
X187844761Y-88952380D01*
X187749523Y-89000000D01*
X187701904Y-89047619D01*
X187654285Y-89142857D01*
X187654285Y-89380952D01*
X187701904Y-89476190D01*
X187749523Y-89523809D01*
X187844761Y-89571428D01*
X188035238Y-89571428D01*
X188130476Y-89523809D01*
X188178095Y-89476190D01*
X188225714Y-89380952D01*
%TO.C,D19*%
X241935714Y-89952380D02*
X241935714Y-88952380D01*
X242173809Y-88952380D01*
X242316666Y-89000000D01*
X242411904Y-89095238D01*
X242459523Y-89190476D01*
X242507142Y-89380952D01*
X242507142Y-89523809D01*
X242459523Y-89714285D01*
X242411904Y-89809523D01*
X242316666Y-89904761D01*
X242173809Y-89952380D01*
X241935714Y-89952380D01*
X243459523Y-89952380D02*
X242888095Y-89952380D01*
X243173809Y-89952380D02*
X243173809Y-88952380D01*
X243078571Y-89095238D01*
X242983333Y-89190476D01*
X242888095Y-89238095D01*
X243935714Y-89952380D02*
X244126190Y-89952380D01*
X244221428Y-89904761D01*
X244269047Y-89857142D01*
X244364285Y-89714285D01*
X244411904Y-89523809D01*
X244411904Y-89142857D01*
X244364285Y-89047619D01*
X244316666Y-89000000D01*
X244221428Y-88952380D01*
X244030952Y-88952380D01*
X243935714Y-89000000D01*
X243888095Y-89047619D01*
X243840476Y-89142857D01*
X243840476Y-89380952D01*
X243888095Y-89476190D01*
X243935714Y-89523809D01*
X244030952Y-89571428D01*
X244221428Y-89571428D01*
X244316666Y-89523809D01*
X244364285Y-89476190D01*
X244411904Y-89380952D01*
%TO.C,D16*%
X225195714Y-89952380D02*
X225195714Y-88952380D01*
X225433809Y-88952380D01*
X225576666Y-89000000D01*
X225671904Y-89095238D01*
X225719523Y-89190476D01*
X225767142Y-89380952D01*
X225767142Y-89523809D01*
X225719523Y-89714285D01*
X225671904Y-89809523D01*
X225576666Y-89904761D01*
X225433809Y-89952380D01*
X225195714Y-89952380D01*
X226719523Y-89952380D02*
X226148095Y-89952380D01*
X226433809Y-89952380D02*
X226433809Y-88952380D01*
X226338571Y-89095238D01*
X226243333Y-89190476D01*
X226148095Y-89238095D01*
X227576666Y-88952380D02*
X227386190Y-88952380D01*
X227290952Y-89000000D01*
X227243333Y-89047619D01*
X227148095Y-89190476D01*
X227100476Y-89380952D01*
X227100476Y-89761904D01*
X227148095Y-89857142D01*
X227195714Y-89904761D01*
X227290952Y-89952380D01*
X227481428Y-89952380D01*
X227576666Y-89904761D01*
X227624285Y-89857142D01*
X227671904Y-89761904D01*
X227671904Y-89523809D01*
X227624285Y-89428571D01*
X227576666Y-89380952D01*
X227481428Y-89333333D01*
X227290952Y-89333333D01*
X227195714Y-89380952D01*
X227148095Y-89428571D01*
X227100476Y-89523809D01*
%TO.C,D14*%
X214165714Y-89952380D02*
X214165714Y-88952380D01*
X214403809Y-88952380D01*
X214546666Y-89000000D01*
X214641904Y-89095238D01*
X214689523Y-89190476D01*
X214737142Y-89380952D01*
X214737142Y-89523809D01*
X214689523Y-89714285D01*
X214641904Y-89809523D01*
X214546666Y-89904761D01*
X214403809Y-89952380D01*
X214165714Y-89952380D01*
X215689523Y-89952380D02*
X215118095Y-89952380D01*
X215403809Y-89952380D02*
X215403809Y-88952380D01*
X215308571Y-89095238D01*
X215213333Y-89190476D01*
X215118095Y-89238095D01*
X216546666Y-89285714D02*
X216546666Y-89952380D01*
X216308571Y-88904761D02*
X216070476Y-89619047D01*
X216689523Y-89619047D01*
%TO.C,R1*%
X167805333Y-85928380D02*
X167472000Y-85452190D01*
X167233904Y-85928380D02*
X167233904Y-84928380D01*
X167614857Y-84928380D01*
X167710095Y-84976000D01*
X167757714Y-85023619D01*
X167805333Y-85118857D01*
X167805333Y-85261714D01*
X167757714Y-85356952D01*
X167710095Y-85404571D01*
X167614857Y-85452190D01*
X167233904Y-85452190D01*
X168757714Y-85928380D02*
X168186285Y-85928380D01*
X168472000Y-85928380D02*
X168472000Y-84928380D01*
X168376761Y-85071238D01*
X168281523Y-85166476D01*
X168186285Y-85214095D01*
X167354761Y-88976380D02*
X166783333Y-88976380D01*
X167069047Y-88976380D02*
X167069047Y-87976380D01*
X166973809Y-88119238D01*
X166878571Y-88214476D01*
X166783333Y-88262095D01*
X167973809Y-87976380D02*
X168069047Y-87976380D01*
X168164285Y-88024000D01*
X168211904Y-88071619D01*
X168259523Y-88166857D01*
X168307142Y-88357333D01*
X168307142Y-88595428D01*
X168259523Y-88785904D01*
X168211904Y-88881142D01*
X168164285Y-88928761D01*
X168069047Y-88976380D01*
X167973809Y-88976380D01*
X167878571Y-88928761D01*
X167830952Y-88881142D01*
X167783333Y-88785904D01*
X167735714Y-88595428D01*
X167735714Y-88357333D01*
X167783333Y-88166857D01*
X167830952Y-88071619D01*
X167878571Y-88024000D01*
X167973809Y-87976380D01*
X168735714Y-88976380D02*
X168735714Y-87976380D01*
X168830952Y-88595428D02*
X169116666Y-88976380D01*
X169116666Y-88309714D02*
X168735714Y-88690666D01*
%TO.C,D24*%
X269995714Y-89952380D02*
X269995714Y-88952380D01*
X270233809Y-88952380D01*
X270376666Y-89000000D01*
X270471904Y-89095238D01*
X270519523Y-89190476D01*
X270567142Y-89380952D01*
X270567142Y-89523809D01*
X270519523Y-89714285D01*
X270471904Y-89809523D01*
X270376666Y-89904761D01*
X270233809Y-89952380D01*
X269995714Y-89952380D01*
X270948095Y-89047619D02*
X270995714Y-89000000D01*
X271090952Y-88952380D01*
X271329047Y-88952380D01*
X271424285Y-89000000D01*
X271471904Y-89047619D01*
X271519523Y-89142857D01*
X271519523Y-89238095D01*
X271471904Y-89380952D01*
X270900476Y-89952380D01*
X271519523Y-89952380D01*
X272376666Y-89285714D02*
X272376666Y-89952380D01*
X272138571Y-88904761D02*
X271900476Y-89619047D01*
X272519523Y-89619047D01*
%TO.C,D22*%
X258505714Y-89952380D02*
X258505714Y-88952380D01*
X258743809Y-88952380D01*
X258886666Y-89000000D01*
X258981904Y-89095238D01*
X259029523Y-89190476D01*
X259077142Y-89380952D01*
X259077142Y-89523809D01*
X259029523Y-89714285D01*
X258981904Y-89809523D01*
X258886666Y-89904761D01*
X258743809Y-89952380D01*
X258505714Y-89952380D01*
X259458095Y-89047619D02*
X259505714Y-89000000D01*
X259600952Y-88952380D01*
X259839047Y-88952380D01*
X259934285Y-89000000D01*
X259981904Y-89047619D01*
X260029523Y-89142857D01*
X260029523Y-89238095D01*
X259981904Y-89380952D01*
X259410476Y-89952380D01*
X260029523Y-89952380D01*
X260410476Y-89047619D02*
X260458095Y-89000000D01*
X260553333Y-88952380D01*
X260791428Y-88952380D01*
X260886666Y-89000000D01*
X260934285Y-89047619D01*
X260981904Y-89142857D01*
X260981904Y-89238095D01*
X260934285Y-89380952D01*
X260362857Y-89952380D01*
X260981904Y-89952380D01*
%TO.C,D15*%
X219715714Y-89952380D02*
X219715714Y-88952380D01*
X219953809Y-88952380D01*
X220096666Y-89000000D01*
X220191904Y-89095238D01*
X220239523Y-89190476D01*
X220287142Y-89380952D01*
X220287142Y-89523809D01*
X220239523Y-89714285D01*
X220191904Y-89809523D01*
X220096666Y-89904761D01*
X219953809Y-89952380D01*
X219715714Y-89952380D01*
X221239523Y-89952380D02*
X220668095Y-89952380D01*
X220953809Y-89952380D02*
X220953809Y-88952380D01*
X220858571Y-89095238D01*
X220763333Y-89190476D01*
X220668095Y-89238095D01*
X222144285Y-88952380D02*
X221668095Y-88952380D01*
X221620476Y-89428571D01*
X221668095Y-89380952D01*
X221763333Y-89333333D01*
X222001428Y-89333333D01*
X222096666Y-89380952D01*
X222144285Y-89428571D01*
X222191904Y-89523809D01*
X222191904Y-89761904D01*
X222144285Y-89857142D01*
X222096666Y-89904761D01*
X222001428Y-89952380D01*
X221763333Y-89952380D01*
X221668095Y-89904761D01*
X221620476Y-89857142D01*
%TO.C,D10*%
X191805714Y-89952380D02*
X191805714Y-88952380D01*
X192043809Y-88952380D01*
X192186666Y-89000000D01*
X192281904Y-89095238D01*
X192329523Y-89190476D01*
X192377142Y-89380952D01*
X192377142Y-89523809D01*
X192329523Y-89714285D01*
X192281904Y-89809523D01*
X192186666Y-89904761D01*
X192043809Y-89952380D01*
X191805714Y-89952380D01*
X193329523Y-89952380D02*
X192758095Y-89952380D01*
X193043809Y-89952380D02*
X193043809Y-88952380D01*
X192948571Y-89095238D01*
X192853333Y-89190476D01*
X192758095Y-89238095D01*
X193948571Y-88952380D02*
X194043809Y-88952380D01*
X194139047Y-89000000D01*
X194186666Y-89047619D01*
X194234285Y-89142857D01*
X194281904Y-89333333D01*
X194281904Y-89571428D01*
X194234285Y-89761904D01*
X194186666Y-89857142D01*
X194139047Y-89904761D01*
X194043809Y-89952380D01*
X193948571Y-89952380D01*
X193853333Y-89904761D01*
X193805714Y-89857142D01*
X193758095Y-89761904D01*
X193710476Y-89571428D01*
X193710476Y-89333333D01*
X193758095Y-89142857D01*
X193805714Y-89047619D01*
X193853333Y-89000000D01*
X193948571Y-88952380D01*
%TO.C,D21*%
X253255714Y-89952380D02*
X253255714Y-88952380D01*
X253493809Y-88952380D01*
X253636666Y-89000000D01*
X253731904Y-89095238D01*
X253779523Y-89190476D01*
X253827142Y-89380952D01*
X253827142Y-89523809D01*
X253779523Y-89714285D01*
X253731904Y-89809523D01*
X253636666Y-89904761D01*
X253493809Y-89952380D01*
X253255714Y-89952380D01*
X254208095Y-89047619D02*
X254255714Y-89000000D01*
X254350952Y-88952380D01*
X254589047Y-88952380D01*
X254684285Y-89000000D01*
X254731904Y-89047619D01*
X254779523Y-89142857D01*
X254779523Y-89238095D01*
X254731904Y-89380952D01*
X254160476Y-89952380D01*
X254779523Y-89952380D01*
X255731904Y-89952380D02*
X255160476Y-89952380D01*
X255446190Y-89952380D02*
X255446190Y-88952380D01*
X255350952Y-89095238D01*
X255255714Y-89190476D01*
X255160476Y-89238095D01*
%TO.C,U2*%
X280384095Y-90396380D02*
X280384095Y-91205904D01*
X280431714Y-91301142D01*
X280479333Y-91348761D01*
X280574571Y-91396380D01*
X280765047Y-91396380D01*
X280860285Y-91348761D01*
X280907904Y-91301142D01*
X280955523Y-91205904D01*
X280955523Y-90396380D01*
X281384095Y-90491619D02*
X281431714Y-90444000D01*
X281526952Y-90396380D01*
X281765047Y-90396380D01*
X281860285Y-90444000D01*
X281907904Y-90491619D01*
X281955523Y-90586857D01*
X281955523Y-90682095D01*
X281907904Y-90824952D01*
X281336476Y-91396380D01*
X281955523Y-91396380D01*
%TO.C,D11*%
X197335714Y-89952380D02*
X197335714Y-88952380D01*
X197573809Y-88952380D01*
X197716666Y-89000000D01*
X197811904Y-89095238D01*
X197859523Y-89190476D01*
X197907142Y-89380952D01*
X197907142Y-89523809D01*
X197859523Y-89714285D01*
X197811904Y-89809523D01*
X197716666Y-89904761D01*
X197573809Y-89952380D01*
X197335714Y-89952380D01*
X198859523Y-89952380D02*
X198288095Y-89952380D01*
X198573809Y-89952380D02*
X198573809Y-88952380D01*
X198478571Y-89095238D01*
X198383333Y-89190476D01*
X198288095Y-89238095D01*
X199811904Y-89952380D02*
X199240476Y-89952380D01*
X199526190Y-89952380D02*
X199526190Y-88952380D01*
X199430952Y-89095238D01*
X199335714Y-89190476D01*
X199240476Y-89238095D01*
%TO.C,D25*%
X275455714Y-89952380D02*
X275455714Y-88952380D01*
X275693809Y-88952380D01*
X275836666Y-89000000D01*
X275931904Y-89095238D01*
X275979523Y-89190476D01*
X276027142Y-89380952D01*
X276027142Y-89523809D01*
X275979523Y-89714285D01*
X275931904Y-89809523D01*
X275836666Y-89904761D01*
X275693809Y-89952380D01*
X275455714Y-89952380D01*
X276408095Y-89047619D02*
X276455714Y-89000000D01*
X276550952Y-88952380D01*
X276789047Y-88952380D01*
X276884285Y-89000000D01*
X276931904Y-89047619D01*
X276979523Y-89142857D01*
X276979523Y-89238095D01*
X276931904Y-89380952D01*
X276360476Y-89952380D01*
X276979523Y-89952380D01*
X277884285Y-88952380D02*
X277408095Y-88952380D01*
X277360476Y-89428571D01*
X277408095Y-89380952D01*
X277503333Y-89333333D01*
X277741428Y-89333333D01*
X277836666Y-89380952D01*
X277884285Y-89428571D01*
X277931904Y-89523809D01*
X277931904Y-89761904D01*
X277884285Y-89857142D01*
X277836666Y-89904761D01*
X277741428Y-89952380D01*
X277503333Y-89952380D01*
X277408095Y-89904761D01*
X277360476Y-89857142D01*
%TO.C,D13*%
X208615714Y-89952380D02*
X208615714Y-88952380D01*
X208853809Y-88952380D01*
X208996666Y-89000000D01*
X209091904Y-89095238D01*
X209139523Y-89190476D01*
X209187142Y-89380952D01*
X209187142Y-89523809D01*
X209139523Y-89714285D01*
X209091904Y-89809523D01*
X208996666Y-89904761D01*
X208853809Y-89952380D01*
X208615714Y-89952380D01*
X210139523Y-89952380D02*
X209568095Y-89952380D01*
X209853809Y-89952380D02*
X209853809Y-88952380D01*
X209758571Y-89095238D01*
X209663333Y-89190476D01*
X209568095Y-89238095D01*
X210472857Y-88952380D02*
X211091904Y-88952380D01*
X210758571Y-89333333D01*
X210901428Y-89333333D01*
X210996666Y-89380952D01*
X211044285Y-89428571D01*
X211091904Y-89523809D01*
X211091904Y-89761904D01*
X211044285Y-89857142D01*
X210996666Y-89904761D01*
X210901428Y-89952380D01*
X210615714Y-89952380D01*
X210520476Y-89904761D01*
X210472857Y-89857142D01*
%TO.C,J1*%
X133916666Y-81272380D02*
X133916666Y-81986666D01*
X133869047Y-82129523D01*
X133773809Y-82224761D01*
X133630952Y-82272380D01*
X133535714Y-82272380D01*
X134916666Y-82272380D02*
X134345238Y-82272380D01*
X134630952Y-82272380D02*
X134630952Y-81272380D01*
X134535714Y-81415238D01*
X134440476Y-81510476D01*
X134345238Y-81558095D01*
X136341666Y-86252380D02*
X136675000Y-87252380D01*
X137008333Y-86252380D01*
X137913095Y-87157142D02*
X137865476Y-87204761D01*
X137722619Y-87252380D01*
X137627380Y-87252380D01*
X137484523Y-87204761D01*
X137389285Y-87109523D01*
X137341666Y-87014285D01*
X137294047Y-86823809D01*
X137294047Y-86680952D01*
X137341666Y-86490476D01*
X137389285Y-86395238D01*
X137484523Y-86300000D01*
X137627380Y-86252380D01*
X137722619Y-86252380D01*
X137865476Y-86300000D01*
X137913095Y-86347619D01*
X138913095Y-87157142D02*
X138865476Y-87204761D01*
X138722619Y-87252380D01*
X138627380Y-87252380D01*
X138484523Y-87204761D01*
X138389285Y-87109523D01*
X138341666Y-87014285D01*
X138294047Y-86823809D01*
X138294047Y-86680952D01*
X138341666Y-86490476D01*
X138389285Y-86395238D01*
X138484523Y-86300000D01*
X138627380Y-86252380D01*
X138722619Y-86252380D01*
X138865476Y-86300000D01*
X138913095Y-86347619D01*
X136913095Y-83600000D02*
X136817857Y-83552380D01*
X136675000Y-83552380D01*
X136532142Y-83600000D01*
X136436904Y-83695238D01*
X136389285Y-83790476D01*
X136341666Y-83980952D01*
X136341666Y-84123809D01*
X136389285Y-84314285D01*
X136436904Y-84409523D01*
X136532142Y-84504761D01*
X136675000Y-84552380D01*
X136770238Y-84552380D01*
X136913095Y-84504761D01*
X136960714Y-84457142D01*
X136960714Y-84123809D01*
X136770238Y-84123809D01*
X137389285Y-84552380D02*
X137389285Y-83552380D01*
X137960714Y-84552380D01*
X137960714Y-83552380D01*
X138436904Y-84552380D02*
X138436904Y-83552380D01*
X138675000Y-83552380D01*
X138817857Y-83600000D01*
X138913095Y-83695238D01*
X138960714Y-83790476D01*
X139008333Y-83980952D01*
X139008333Y-84123809D01*
X138960714Y-84314285D01*
X138913095Y-84409523D01*
X138817857Y-84504761D01*
X138675000Y-84552380D01*
X138436904Y-84552380D01*
%TO.C,D1*%
X142061904Y-89952380D02*
X142061904Y-88952380D01*
X142300000Y-88952380D01*
X142442857Y-89000000D01*
X142538095Y-89095238D01*
X142585714Y-89190476D01*
X142633333Y-89380952D01*
X142633333Y-89523809D01*
X142585714Y-89714285D01*
X142538095Y-89809523D01*
X142442857Y-89904761D01*
X142300000Y-89952380D01*
X142061904Y-89952380D01*
X143585714Y-89952380D02*
X143014285Y-89952380D01*
X143300000Y-89952380D02*
X143300000Y-88952380D01*
X143204761Y-89095238D01*
X143109523Y-89190476D01*
X143014285Y-89238095D01*
%TO.C,D17*%
X230785714Y-89952380D02*
X230785714Y-88952380D01*
X231023809Y-88952380D01*
X231166666Y-89000000D01*
X231261904Y-89095238D01*
X231309523Y-89190476D01*
X231357142Y-89380952D01*
X231357142Y-89523809D01*
X231309523Y-89714285D01*
X231261904Y-89809523D01*
X231166666Y-89904761D01*
X231023809Y-89952380D01*
X230785714Y-89952380D01*
X232309523Y-89952380D02*
X231738095Y-89952380D01*
X232023809Y-89952380D02*
X232023809Y-88952380D01*
X231928571Y-89095238D01*
X231833333Y-89190476D01*
X231738095Y-89238095D01*
X232642857Y-88952380D02*
X233309523Y-88952380D01*
X232880952Y-89952380D01*
%TO.C,D18*%
X236215714Y-89952380D02*
X236215714Y-88952380D01*
X236453809Y-88952380D01*
X236596666Y-89000000D01*
X236691904Y-89095238D01*
X236739523Y-89190476D01*
X236787142Y-89380952D01*
X236787142Y-89523809D01*
X236739523Y-89714285D01*
X236691904Y-89809523D01*
X236596666Y-89904761D01*
X236453809Y-89952380D01*
X236215714Y-89952380D01*
X237739523Y-89952380D02*
X237168095Y-89952380D01*
X237453809Y-89952380D02*
X237453809Y-88952380D01*
X237358571Y-89095238D01*
X237263333Y-89190476D01*
X237168095Y-89238095D01*
X238310952Y-89380952D02*
X238215714Y-89333333D01*
X238168095Y-89285714D01*
X238120476Y-89190476D01*
X238120476Y-89142857D01*
X238168095Y-89047619D01*
X238215714Y-89000000D01*
X238310952Y-88952380D01*
X238501428Y-88952380D01*
X238596666Y-89000000D01*
X238644285Y-89047619D01*
X238691904Y-89142857D01*
X238691904Y-89190476D01*
X238644285Y-89285714D01*
X238596666Y-89333333D01*
X238501428Y-89380952D01*
X238310952Y-89380952D01*
X238215714Y-89428571D01*
X238168095Y-89476190D01*
X238120476Y-89571428D01*
X238120476Y-89761904D01*
X238168095Y-89857142D01*
X238215714Y-89904761D01*
X238310952Y-89952380D01*
X238501428Y-89952380D01*
X238596666Y-89904761D01*
X238644285Y-89857142D01*
X238691904Y-89761904D01*
X238691904Y-89571428D01*
X238644285Y-89476190D01*
X238596666Y-89428571D01*
X238501428Y-89380952D01*
%TO.C,D6*%
X169961904Y-89952380D02*
X169961904Y-88952380D01*
X170200000Y-88952380D01*
X170342857Y-89000000D01*
X170438095Y-89095238D01*
X170485714Y-89190476D01*
X170533333Y-89380952D01*
X170533333Y-89523809D01*
X170485714Y-89714285D01*
X170438095Y-89809523D01*
X170342857Y-89904761D01*
X170200000Y-89952380D01*
X169961904Y-89952380D01*
X171390476Y-88952380D02*
X171200000Y-88952380D01*
X171104761Y-89000000D01*
X171057142Y-89047619D01*
X170961904Y-89190476D01*
X170914285Y-89380952D01*
X170914285Y-89761904D01*
X170961904Y-89857142D01*
X171009523Y-89904761D01*
X171104761Y-89952380D01*
X171295238Y-89952380D01*
X171390476Y-89904761D01*
X171438095Y-89857142D01*
X171485714Y-89761904D01*
X171485714Y-89523809D01*
X171438095Y-89428571D01*
X171390476Y-89380952D01*
X171295238Y-89333333D01*
X171104761Y-89333333D01*
X171009523Y-89380952D01*
X170961904Y-89428571D01*
X170914285Y-89523809D01*
D11*
%TO.C,U1*%
X95490000Y-103440000D02*
X95490000Y-85660000D01*
X51040000Y-100900000D02*
X54850000Y-100900000D01*
X54850000Y-88200000D02*
X51040000Y-88200000D01*
X50340000Y-82550000D02*
X50340000Y-106550000D01*
X99808000Y-92010000D02*
X99808000Y-94550000D01*
X52340000Y-108550000D02*
X99840000Y-108550000D01*
X99808000Y-86930000D02*
X99808000Y-89470000D01*
X100570000Y-85660000D02*
X100570000Y-103440000D01*
X99808000Y-97090000D02*
X99808000Y-102170000D01*
X94840000Y-87050000D02*
X94840000Y-102050000D01*
X97776000Y-97090000D02*
X99808000Y-97090000D01*
X97776000Y-94550000D02*
X97776000Y-97090000D01*
X99840000Y-80550000D02*
X52340000Y-80550000D01*
X54850000Y-103440000D02*
X51040000Y-103440000D01*
X51040000Y-85660000D02*
X54850000Y-85660000D01*
X99808000Y-89470000D02*
X97776000Y-89470000D01*
X94840000Y-102050000D02*
X76840000Y-102050000D01*
X56340000Y-90550000D02*
X50340000Y-90550000D01*
X99808000Y-99630000D02*
X96252000Y-99630000D01*
X56340000Y-90550000D02*
X56340000Y-98550000D01*
X51040000Y-103440000D02*
X51040000Y-100900000D01*
X97776000Y-92010000D02*
X99808000Y-92010000D01*
X54850000Y-100900000D02*
X54850000Y-103440000D01*
X99808000Y-102170000D02*
X96252000Y-102170000D01*
X54850000Y-85660000D02*
X54850000Y-88200000D01*
X100570000Y-103440000D02*
X95490000Y-103440000D01*
X56340000Y-98550000D02*
X50340000Y-98550000D01*
X97776000Y-89470000D02*
X97776000Y-92010000D01*
X76840000Y-102050000D02*
X76840000Y-87050000D01*
X95490000Y-85660000D02*
X100570000Y-85660000D01*
X76840000Y-87050000D02*
X94840000Y-87050000D01*
X99808000Y-94550000D02*
X97776000Y-94550000D01*
X101840000Y-82550000D02*
X101840000Y-106550000D01*
X96252000Y-86930000D02*
X99808000Y-86930000D01*
X51040000Y-88200000D02*
X51040000Y-85660000D01*
X50340000Y-106550000D02*
G75*
G03*
X52340000Y-108550000I1999999J-1D01*
G01*
X99840000Y-108550000D02*
G75*
G03*
X101840000Y-106550000I1J1999999D01*
G01*
X52340000Y-80550000D02*
G75*
G03*
X50340000Y-82550000I-1J-1999999D01*
G01*
X101840000Y-82550000D02*
G75*
G03*
X99840000Y-80550000I-1999999J1D01*
G01*
X101340000Y-106250000D02*
G75*
G03*
X101340000Y-106250000I-1500000J0D01*
G01*
X53840000Y-82850000D02*
G75*
G03*
X53840000Y-82850000I-1500000J0D01*
G01*
D12*
X53245000Y-86930000D02*
G75*
G03*
X53245000Y-86930000I-300000J0D01*
G01*
D11*
X101340000Y-82850000D02*
G75*
G03*
X101340000Y-82850000I-1500000J0D01*
G01*
D13*
X79380000Y-89470000D02*
G75*
G03*
X79380000Y-89470000I-400000J0D01*
G01*
D12*
X53245000Y-102170000D02*
G75*
G03*
X53245000Y-102170000I-300000J0D01*
G01*
D11*
X53840000Y-106250000D02*
G75*
G03*
X53840000Y-106250000I-1500000J0D01*
G01*
%TO.C,D12*%
X201480000Y-98100000D02*
X201480000Y-92000000D01*
X202580000Y-98100000D02*
X201480000Y-98100000D01*
X206880000Y-92000000D02*
X206880000Y-97000000D01*
%TO.C,D2*%
X151080000Y-92000000D02*
X151080000Y-97000000D01*
X145680000Y-98100000D02*
X145680000Y-92000000D01*
X146780000Y-98100000D02*
X145680000Y-98100000D01*
%TO.C,D4*%
X162240000Y-92000000D02*
X162240000Y-97000000D01*
X156840000Y-98100000D02*
X156840000Y-92000000D01*
X157940000Y-98100000D02*
X156840000Y-98100000D01*
%TO.C,D3*%
X156660000Y-90900000D02*
X156660000Y-97000000D01*
X151260000Y-97000000D02*
X151260000Y-92000000D01*
X155560000Y-90900000D02*
X156660000Y-90900000D01*
%TO.C,D5*%
X167820000Y-90900000D02*
X167820000Y-97000000D01*
X166720000Y-90900000D02*
X167820000Y-90900000D01*
X162420000Y-97000000D02*
X162420000Y-92000000D01*
%TO.C,D7*%
X178980000Y-90900000D02*
X178980000Y-97000000D01*
X177880000Y-90900000D02*
X178980000Y-90900000D01*
X173580000Y-97000000D02*
X173580000Y-92000000D01*
%TO.C,D20*%
X251520000Y-92000000D02*
X251520000Y-97000000D01*
X247220000Y-98100000D02*
X246120000Y-98100000D01*
X246120000Y-98100000D02*
X246120000Y-92000000D01*
%TO.C,D8*%
X179160000Y-98100000D02*
X179160000Y-92000000D01*
X180260000Y-98100000D02*
X179160000Y-98100000D01*
X184560000Y-92000000D02*
X184560000Y-97000000D01*
%TO.C,D23*%
X268260000Y-90900000D02*
X268260000Y-97000000D01*
X267160000Y-90900000D02*
X268260000Y-90900000D01*
X262860000Y-97000000D02*
X262860000Y-92000000D01*
%TO.C,D9*%
X190140000Y-90900000D02*
X190140000Y-97000000D01*
X189040000Y-90900000D02*
X190140000Y-90900000D01*
X184740000Y-97000000D02*
X184740000Y-92000000D01*
%TO.C,D19*%
X244840000Y-90900000D02*
X245940000Y-90900000D01*
X245940000Y-90900000D02*
X245940000Y-97000000D01*
X240540000Y-97000000D02*
X240540000Y-92000000D01*
%TO.C,D16*%
X223800000Y-98100000D02*
X223800000Y-92000000D01*
X224900000Y-98100000D02*
X223800000Y-98100000D01*
X229200000Y-92000000D02*
X229200000Y-97000000D01*
%TO.C,D14*%
X212640000Y-98100000D02*
X212640000Y-92000000D01*
X213740000Y-98100000D02*
X212640000Y-98100000D01*
X218040000Y-92000000D02*
X218040000Y-97000000D01*
%TO.C,R1*%
X168187258Y-86477500D02*
X167712742Y-86477500D01*
X168187258Y-87522500D02*
X167712742Y-87522500D01*
%TO.C,D24*%
X268440000Y-98100000D02*
X268440000Y-92000000D01*
X269540000Y-98100000D02*
X268440000Y-98100000D01*
X273840000Y-92000000D02*
X273840000Y-97000000D01*
%TO.C,D22*%
X262680000Y-92000000D02*
X262680000Y-97000000D01*
X257280000Y-98100000D02*
X257280000Y-92000000D01*
X258380000Y-98100000D02*
X257280000Y-98100000D01*
%TO.C,D15*%
X223620000Y-90900000D02*
X223620000Y-97000000D01*
X222520000Y-90900000D02*
X223620000Y-90900000D01*
X218220000Y-97000000D02*
X218220000Y-92000000D01*
%TO.C,D10*%
X195720000Y-92000000D02*
X195720000Y-97000000D01*
X191420000Y-98100000D02*
X190320000Y-98100000D01*
X190320000Y-98100000D02*
X190320000Y-92000000D01*
%TO.C,D21*%
X257100000Y-90900000D02*
X257100000Y-97000000D01*
X256000000Y-90900000D02*
X257100000Y-90900000D01*
X251700000Y-97000000D02*
X251700000Y-92000000D01*
%TO.C,U2*%
X282335000Y-95780000D02*
X282335000Y-93180000D01*
X280585000Y-92380000D02*
X281535000Y-92380000D01*
X282335000Y-93180000D02*
X282085000Y-92930000D01*
X281685000Y-96480000D02*
X281535000Y-96630000D01*
X282335000Y-95780000D02*
X282085000Y-96030000D01*
X281685000Y-92530000D02*
X281535000Y-92380000D01*
X281535000Y-96630000D02*
X280585000Y-96630000D01*
%TO.C,D11*%
X201300000Y-90900000D02*
X201300000Y-97000000D01*
X195900000Y-97000000D02*
X195900000Y-92000000D01*
X200200000Y-90900000D02*
X201300000Y-90900000D01*
%TO.C,D25*%
X279420000Y-90900000D02*
X279420000Y-97000000D01*
X278320000Y-90900000D02*
X279420000Y-90900000D01*
X274020000Y-97000000D02*
X274020000Y-92000000D01*
%TO.C,D13*%
X211360000Y-90900000D02*
X212460000Y-90900000D01*
X207060000Y-97000000D02*
X207060000Y-92000000D01*
X212460000Y-90900000D02*
X212460000Y-97000000D01*
%TO.C,J1*%
X135580000Y-85420000D02*
X135580000Y-88020000D01*
X132920000Y-82820000D02*
X134250000Y-82820000D01*
X132920000Y-85420000D02*
X135580000Y-85420000D01*
X132920000Y-88020000D02*
X135580000Y-88020000D01*
X132920000Y-84150000D02*
X132920000Y-82820000D01*
X132920000Y-85420000D02*
X132920000Y-88020000D01*
%TO.C,D1*%
X140100000Y-97000000D02*
X140100000Y-92000000D01*
X144400000Y-90900000D02*
X145500000Y-90900000D01*
X145500000Y-90900000D02*
X145500000Y-97000000D01*
%TO.C,D17*%
X233680000Y-90900000D02*
X234780000Y-90900000D01*
X229380000Y-97000000D02*
X229380000Y-92000000D01*
X234780000Y-90900000D02*
X234780000Y-97000000D01*
%TO.C,D18*%
X234960000Y-98100000D02*
X234960000Y-92000000D01*
X240360000Y-92000000D02*
X240360000Y-97000000D01*
X236060000Y-98100000D02*
X234960000Y-98100000D01*
%TO.C,D6*%
X168000000Y-98100000D02*
X168000000Y-92000000D01*
X173400000Y-92000000D02*
X173400000Y-97000000D01*
X169100000Y-98100000D02*
X168000000Y-98100000D01*
%TD*%
M02*
