%TF.GenerationSoftware,KiCad,Pcbnew,(6.0.1)*%
%TF.CreationDate,2022-02-04T16:43:35-05:00*%
%TF.ProjectId,fan,66616e2e-6b69-4636-9164-5f7063625858,rev?*%
%TF.SameCoordinates,Original*%
%TF.FileFunction,Copper,L2,Bot*%
%TF.FilePolarity,Positive*%
%FSLAX46Y46*%
G04 Gerber Fmt 4.6, Leading zero omitted, Abs format (unit mm)*
G04 Created by KiCad (PCBNEW (6.0.1)) date 2022-02-04 16:43:35*
%MOMM*%
%LPD*%
G01*
G04 APERTURE LIST*
G04 Aperture macros list*
%AMRoundRect*
0 Rectangle with rounded corners*
0 $1 Rounding radius*
0 $2 $3 $4 $5 $6 $7 $8 $9 X,Y pos of 4 corners*
0 Add a 4 corners polygon primitive as box body*
4,1,4,$2,$3,$4,$5,$6,$7,$8,$9,$2,$3,0*
0 Add four circle primitives for the rounded corners*
1,1,$1+$1,$2,$3*
1,1,$1+$1,$4,$5*
1,1,$1+$1,$6,$7*
1,1,$1+$1,$8,$9*
0 Add four rect primitives between the rounded corners*
20,1,$1+$1,$2,$3,$4,$5,0*
20,1,$1+$1,$4,$5,$6,$7,0*
20,1,$1+$1,$6,$7,$8,$9,0*
20,1,$1+$1,$8,$9,$2,$3,0*%
G04 Aperture macros list end*
%TA.AperFunction,ComponentPad*%
%ADD10R,1.524000X1.524000*%
%TD*%
%TA.AperFunction,ComponentPad*%
%ADD11C,1.524000*%
%TD*%
%TA.AperFunction,ComponentPad*%
%ADD12RoundRect,0.249900X0.400100X-0.275100X0.400100X0.275100X-0.400100X0.275100X-0.400100X-0.275100X0*%
%TD*%
%TA.AperFunction,ComponentPad*%
%ADD13O,1.300000X1.050000*%
%TD*%
%TA.AperFunction,ComponentPad*%
%ADD14R,1.700000X1.700000*%
%TD*%
%TA.AperFunction,ComponentPad*%
%ADD15O,1.700000X1.700000*%
%TD*%
%TA.AperFunction,ViaPad*%
%ADD16C,0.800000*%
%TD*%
G04 APERTURE END LIST*
D10*
%TO.P,U1,1,EN*%
%TO.N,unconnected-(U1-Pad1)*%
X95800000Y-81850000D03*
D11*
%TO.P,U1,2,SENSOR_VP*%
%TO.N,unconnected-(U1-Pad2)*%
X93260000Y-81850000D03*
%TO.P,U1,3,SENSOR_VN*%
%TO.N,unconnected-(U1-Pad3)*%
X90720000Y-81850000D03*
%TO.P,U1,4,IO34*%
%TO.N,unconnected-(U1-Pad4)*%
X88180000Y-81850000D03*
%TO.P,U1,5,IO35*%
%TO.N,unconnected-(U1-Pad5)*%
X85640000Y-81850000D03*
%TO.P,U1,6,IO32*%
%TO.N,unconnected-(U1-Pad6)*%
X83100000Y-81850000D03*
%TO.P,U1,7,IO33*%
%TO.N,unconnected-(U1-Pad7)*%
X80560000Y-81850000D03*
%TO.P,U1,8,IO25*%
%TO.N,unconnected-(U1-Pad8)*%
X78020000Y-81850000D03*
%TO.P,U1,9,IO26*%
%TO.N,unconnected-(U1-Pad9)*%
X75480000Y-81850000D03*
%TO.P,U1,10,IO27*%
%TO.N,unconnected-(U1-Pad10)*%
X72940000Y-81850000D03*
%TO.P,U1,11,IO14*%
%TO.N,unconnected-(U1-Pad11)*%
X70400000Y-81850000D03*
%TO.P,U1,12,IO12*%
%TO.N,unconnected-(U1-Pad12)*%
X67860000Y-81850000D03*
%TO.P,U1,13,IO13*%
%TO.N,unconnected-(U1-Pad13)*%
X65320000Y-81850000D03*
%TO.P,U1,14,GND*%
%TO.N,GND*%
X62780000Y-81850000D03*
%TO.P,U1,15,VIN*%
%TO.N,VCC*%
X60240000Y-81850000D03*
%TO.P,U1,16,3V3*%
%TO.N,unconnected-(U1-Pad16)*%
X60240000Y-107250000D03*
%TO.P,U1,17,GND*%
%TO.N,GND*%
X62780000Y-107250000D03*
%TO.P,U1,18,IO15*%
%TO.N,Net-(D1-Pad2)*%
X65320000Y-107250000D03*
%TO.P,U1,19,IO2*%
%TO.N,unconnected-(U1-Pad19)*%
X67860000Y-107250000D03*
%TO.P,U1,20,IO4*%
%TO.N,unconnected-(U1-Pad20)*%
X70400000Y-107250000D03*
%TO.P,U1,21,IO16*%
%TO.N,unconnected-(U1-Pad21)*%
X72940000Y-107250000D03*
%TO.P,U1,22,IO17*%
%TO.N,unconnected-(U1-Pad22)*%
X75480000Y-107250000D03*
%TO.P,U1,23,IO5*%
%TO.N,Net-(D1-Pad1)*%
X78020000Y-107250000D03*
%TO.P,U1,24,IO18*%
%TO.N,unconnected-(U1-Pad24)*%
X80560000Y-107250000D03*
%TO.P,U1,25,IO19*%
%TO.N,unconnected-(U1-Pad25)*%
X83100000Y-107250000D03*
%TO.P,U1,26,IO21*%
%TO.N,unconnected-(U1-Pad26)*%
X85640000Y-107250000D03*
%TO.P,U1,27,RXD0/IO3*%
%TO.N,unconnected-(U1-Pad27)*%
X88180000Y-107250000D03*
%TO.P,U1,28,TXD0/IO1*%
%TO.N,unconnected-(U1-Pad28)*%
X90720000Y-107250000D03*
%TO.P,U1,29,IO22*%
%TO.N,unconnected-(U1-Pad29)*%
X93260000Y-107250000D03*
%TO.P,U1,30,IO23*%
%TO.N,unconnected-(U1-Pad30)*%
X95800000Y-107250000D03*
%TD*%
D12*
%TO.P,U2,1,vcc*%
%TO.N,VCC*%
X281235000Y-95770000D03*
D13*
%TO.P,U2,2,GND*%
%TO.N,GND*%
X281235000Y-94500000D03*
%TO.P,U2,3,output*%
%TO.N,Net-(R1-Pad1)*%
X281235000Y-93230000D03*
%TD*%
D14*
%TO.P,J1,1,Pin_1*%
%TO.N,GND*%
X134250000Y-84150000D03*
D15*
%TO.P,J1,2,Pin_2*%
%TO.N,VCC*%
X134250000Y-86690000D03*
%TD*%
D16*
%TO.N,GND*%
X208080000Y-92070000D03*
X196890000Y-92100000D03*
X250510000Y-96900000D03*
X274960000Y-92150000D03*
X183611000Y-96889000D03*
X263860000Y-92110000D03*
X252690000Y-92110000D03*
X272820000Y-96910000D03*
X216980000Y-96960000D03*
X261660000Y-96930000D03*
X163382000Y-91683000D03*
X161350000Y-96509000D03*
X185811000Y-91989000D03*
X174661000Y-92014000D03*
X228190000Y-96920000D03*
X172436000Y-96839000D03*
X239480000Y-96980000D03*
X230360000Y-92080000D03*
X150174000Y-96509000D03*
X241560000Y-92120000D03*
X219270000Y-92150000D03*
X194786000Y-96939000D03*
X205900000Y-97000000D03*
X152206000Y-91683000D03*
X141086000Y-92039000D03*
%TD*%
%TA.AperFunction,Conductor*%
%TO.N,GND*%
G36*
X282434121Y-76528002D02*
G01*
X282480614Y-76581658D01*
X282492000Y-76634000D01*
X282492000Y-92651484D01*
X282471998Y-92719605D01*
X282418342Y-92766098D01*
X282348068Y-92776202D01*
X282283488Y-92746708D01*
X282254338Y-92709859D01*
X282231835Y-92666815D01*
X282228981Y-92661355D01*
X282223630Y-92654699D01*
X282105840Y-92508199D01*
X282101981Y-92503399D01*
X281946719Y-92373119D01*
X281941327Y-92370155D01*
X281941323Y-92370152D01*
X281774506Y-92278444D01*
X281769109Y-92275477D01*
X281575916Y-92214193D01*
X281569799Y-92213507D01*
X281569795Y-92213506D01*
X281495652Y-92205190D01*
X281418183Y-92196500D01*
X281058996Y-92196500D01*
X280908287Y-92211277D01*
X280714258Y-92269858D01*
X280535302Y-92365010D01*
X280378237Y-92493110D01*
X280374310Y-92497857D01*
X280374308Y-92497859D01*
X280252973Y-92644528D01*
X280252971Y-92644531D01*
X280249044Y-92649278D01*
X280152644Y-92827565D01*
X280092710Y-93021180D01*
X280071524Y-93222750D01*
X280089894Y-93424596D01*
X280147119Y-93619029D01*
X280149972Y-93624486D01*
X280149973Y-93624489D01*
X280238162Y-93793181D01*
X280238165Y-93793185D01*
X280241019Y-93798645D01*
X280241221Y-93798897D01*
X280261201Y-93864912D01*
X280246041Y-93925885D01*
X280156038Y-94092342D01*
X280151286Y-94103647D01*
X280112578Y-94228692D01*
X280112372Y-94242795D01*
X280119127Y-94246000D01*
X280888758Y-94246000D01*
X280902803Y-94246785D01*
X281051817Y-94263500D01*
X281363000Y-94263500D01*
X281431121Y-94283502D01*
X281477614Y-94337158D01*
X281489000Y-94389500D01*
X281489000Y-94610500D01*
X281468998Y-94678621D01*
X281415342Y-94725114D01*
X281363000Y-94736500D01*
X280784510Y-94736500D01*
X280781264Y-94736837D01*
X280781260Y-94736837D01*
X280685612Y-94746761D01*
X280685608Y-94746762D01*
X280678754Y-94747473D01*
X280672217Y-94749654D01*
X280665475Y-94751110D01*
X280665172Y-94749708D01*
X280638725Y-94754000D01*
X280126014Y-94754000D01*
X280112483Y-94757973D01*
X280111363Y-94765768D01*
X280145846Y-94882932D01*
X280150437Y-94894296D01*
X280192386Y-94974536D01*
X280206220Y-95044172D01*
X280187983Y-95099029D01*
X280142877Y-95172204D01*
X280087202Y-95340059D01*
X280076500Y-95444510D01*
X280076500Y-96095490D01*
X280087473Y-96201246D01*
X280143441Y-96369003D01*
X280236501Y-96519385D01*
X280361660Y-96644326D01*
X280512204Y-96737123D01*
X280680059Y-96792798D01*
X280686896Y-96793498D01*
X280686898Y-96793499D01*
X280729864Y-96797901D01*
X280784510Y-96803500D01*
X281685490Y-96803500D01*
X281688736Y-96803163D01*
X281688740Y-96803163D01*
X281784388Y-96793239D01*
X281784392Y-96793238D01*
X281791246Y-96792527D01*
X281797782Y-96790346D01*
X281797784Y-96790346D01*
X281935387Y-96744438D01*
X281959003Y-96736559D01*
X282109385Y-96643499D01*
X282234326Y-96518340D01*
X282258740Y-96478733D01*
X282311512Y-96431240D01*
X282381584Y-96419816D01*
X282446707Y-96448090D01*
X282486207Y-96507084D01*
X282492000Y-96544849D01*
X282492000Y-112366000D01*
X282471998Y-112434121D01*
X282418342Y-112480614D01*
X282366000Y-112492000D01*
X49642846Y-112492000D01*
X49574725Y-112471998D01*
X49528232Y-112418342D01*
X49516846Y-112366031D01*
X49515912Y-108524372D01*
X49515602Y-107250000D01*
X58964647Y-107250000D01*
X58984022Y-107471463D01*
X59041560Y-107686196D01*
X59043882Y-107691177D01*
X59043883Y-107691178D01*
X59133186Y-107882689D01*
X59133189Y-107882694D01*
X59135512Y-107887676D01*
X59138668Y-107892183D01*
X59138669Y-107892185D01*
X59175107Y-107944223D01*
X59263023Y-108069781D01*
X59420219Y-108226977D01*
X59424727Y-108230134D01*
X59424730Y-108230136D01*
X59500495Y-108283187D01*
X59602323Y-108354488D01*
X59607305Y-108356811D01*
X59607310Y-108356814D01*
X59797810Y-108445645D01*
X59803804Y-108448440D01*
X59809112Y-108449862D01*
X59809114Y-108449863D01*
X59874949Y-108467503D01*
X60018537Y-108505978D01*
X60240000Y-108525353D01*
X60461463Y-108505978D01*
X60605051Y-108467503D01*
X60670886Y-108449863D01*
X60670888Y-108449862D01*
X60676196Y-108448440D01*
X60682190Y-108445645D01*
X60872690Y-108356814D01*
X60872695Y-108356811D01*
X60877677Y-108354488D01*
X60942959Y-108308777D01*
X62085777Y-108308777D01*
X62095074Y-108320793D01*
X62138069Y-108350898D01*
X62147555Y-108356376D01*
X62338993Y-108445645D01*
X62349285Y-108449391D01*
X62553309Y-108504059D01*
X62564104Y-108505962D01*
X62774525Y-108524372D01*
X62785475Y-108524372D01*
X62995896Y-108505962D01*
X63006691Y-108504059D01*
X63210715Y-108449391D01*
X63221007Y-108445645D01*
X63412445Y-108356376D01*
X63421931Y-108350898D01*
X63465764Y-108320207D01*
X63474139Y-108309729D01*
X63467071Y-108296281D01*
X62792812Y-107622022D01*
X62778868Y-107614408D01*
X62777035Y-107614539D01*
X62770420Y-107618790D01*
X62092207Y-108297003D01*
X62085777Y-108308777D01*
X60942959Y-108308777D01*
X60979505Y-108283187D01*
X61055270Y-108230136D01*
X61055273Y-108230134D01*
X61059781Y-108226977D01*
X61216977Y-108069781D01*
X61304894Y-107944223D01*
X61341331Y-107892185D01*
X61341332Y-107892183D01*
X61344488Y-107887676D01*
X61346811Y-107882694D01*
X61346814Y-107882689D01*
X61396081Y-107777035D01*
X61442999Y-107723750D01*
X61511276Y-107704289D01*
X61579236Y-107724831D01*
X61624471Y-107777035D01*
X61673623Y-107882441D01*
X61679103Y-107891932D01*
X61709794Y-107935765D01*
X61720271Y-107944140D01*
X61733718Y-107937072D01*
X62407978Y-107262812D01*
X62414356Y-107251132D01*
X63144408Y-107251132D01*
X63144539Y-107252965D01*
X63148790Y-107259580D01*
X63827003Y-107937793D01*
X63838777Y-107944223D01*
X63850793Y-107934926D01*
X63880897Y-107891932D01*
X63886377Y-107882441D01*
X63935529Y-107777035D01*
X63982447Y-107723750D01*
X64050724Y-107704289D01*
X64118684Y-107724831D01*
X64163919Y-107777035D01*
X64213186Y-107882689D01*
X64213189Y-107882694D01*
X64215512Y-107887676D01*
X64218668Y-107892183D01*
X64218669Y-107892185D01*
X64255107Y-107944223D01*
X64343023Y-108069781D01*
X64500219Y-108226977D01*
X64504727Y-108230134D01*
X64504730Y-108230136D01*
X64580495Y-108283187D01*
X64682323Y-108354488D01*
X64687305Y-108356811D01*
X64687310Y-108356814D01*
X64877810Y-108445645D01*
X64883804Y-108448440D01*
X64889112Y-108449862D01*
X64889114Y-108449863D01*
X64954949Y-108467503D01*
X65098537Y-108505978D01*
X65320000Y-108525353D01*
X65541463Y-108505978D01*
X65685051Y-108467503D01*
X65750886Y-108449863D01*
X65750888Y-108449862D01*
X65756196Y-108448440D01*
X65762190Y-108445645D01*
X65952690Y-108356814D01*
X65952695Y-108356811D01*
X65957677Y-108354488D01*
X66059505Y-108283187D01*
X66135270Y-108230136D01*
X66135273Y-108230134D01*
X66139781Y-108226977D01*
X66296977Y-108069781D01*
X66384894Y-107944223D01*
X66421331Y-107892185D01*
X66421332Y-107892183D01*
X66424488Y-107887676D01*
X66426811Y-107882694D01*
X66426814Y-107882689D01*
X66475805Y-107777627D01*
X66522723Y-107724342D01*
X66591000Y-107704881D01*
X66658960Y-107725423D01*
X66704195Y-107777627D01*
X66753186Y-107882689D01*
X66753189Y-107882694D01*
X66755512Y-107887676D01*
X66758668Y-107892183D01*
X66758669Y-107892185D01*
X66795107Y-107944223D01*
X66883023Y-108069781D01*
X67040219Y-108226977D01*
X67044727Y-108230134D01*
X67044730Y-108230136D01*
X67120495Y-108283187D01*
X67222323Y-108354488D01*
X67227305Y-108356811D01*
X67227310Y-108356814D01*
X67417810Y-108445645D01*
X67423804Y-108448440D01*
X67429112Y-108449862D01*
X67429114Y-108449863D01*
X67494949Y-108467503D01*
X67638537Y-108505978D01*
X67860000Y-108525353D01*
X68081463Y-108505978D01*
X68225051Y-108467503D01*
X68290886Y-108449863D01*
X68290888Y-108449862D01*
X68296196Y-108448440D01*
X68302190Y-108445645D01*
X68492690Y-108356814D01*
X68492695Y-108356811D01*
X68497677Y-108354488D01*
X68599505Y-108283187D01*
X68675270Y-108230136D01*
X68675273Y-108230134D01*
X68679781Y-108226977D01*
X68836977Y-108069781D01*
X68924894Y-107944223D01*
X68961331Y-107892185D01*
X68961332Y-107892183D01*
X68964488Y-107887676D01*
X68966811Y-107882694D01*
X68966814Y-107882689D01*
X69015805Y-107777627D01*
X69062723Y-107724342D01*
X69131000Y-107704881D01*
X69198960Y-107725423D01*
X69244195Y-107777627D01*
X69293186Y-107882689D01*
X69293189Y-107882694D01*
X69295512Y-107887676D01*
X69298668Y-107892183D01*
X69298669Y-107892185D01*
X69335107Y-107944223D01*
X69423023Y-108069781D01*
X69580219Y-108226977D01*
X69584727Y-108230134D01*
X69584730Y-108230136D01*
X69660495Y-108283187D01*
X69762323Y-108354488D01*
X69767305Y-108356811D01*
X69767310Y-108356814D01*
X69957810Y-108445645D01*
X69963804Y-108448440D01*
X69969112Y-108449862D01*
X69969114Y-108449863D01*
X70034949Y-108467503D01*
X70178537Y-108505978D01*
X70400000Y-108525353D01*
X70621463Y-108505978D01*
X70765051Y-108467503D01*
X70830886Y-108449863D01*
X70830888Y-108449862D01*
X70836196Y-108448440D01*
X70842190Y-108445645D01*
X71032690Y-108356814D01*
X71032695Y-108356811D01*
X71037677Y-108354488D01*
X71139505Y-108283187D01*
X71215270Y-108230136D01*
X71215273Y-108230134D01*
X71219781Y-108226977D01*
X71376977Y-108069781D01*
X71464894Y-107944223D01*
X71501331Y-107892185D01*
X71501332Y-107892183D01*
X71504488Y-107887676D01*
X71506811Y-107882694D01*
X71506814Y-107882689D01*
X71555805Y-107777627D01*
X71602723Y-107724342D01*
X71671000Y-107704881D01*
X71738960Y-107725423D01*
X71784195Y-107777627D01*
X71833186Y-107882689D01*
X71833189Y-107882694D01*
X71835512Y-107887676D01*
X71838668Y-107892183D01*
X71838669Y-107892185D01*
X71875107Y-107944223D01*
X71963023Y-108069781D01*
X72120219Y-108226977D01*
X72124727Y-108230134D01*
X72124730Y-108230136D01*
X72200495Y-108283187D01*
X72302323Y-108354488D01*
X72307305Y-108356811D01*
X72307310Y-108356814D01*
X72497810Y-108445645D01*
X72503804Y-108448440D01*
X72509112Y-108449862D01*
X72509114Y-108449863D01*
X72574949Y-108467503D01*
X72718537Y-108505978D01*
X72940000Y-108525353D01*
X73161463Y-108505978D01*
X73305051Y-108467503D01*
X73370886Y-108449863D01*
X73370888Y-108449862D01*
X73376196Y-108448440D01*
X73382190Y-108445645D01*
X73572690Y-108356814D01*
X73572695Y-108356811D01*
X73577677Y-108354488D01*
X73679505Y-108283187D01*
X73755270Y-108230136D01*
X73755273Y-108230134D01*
X73759781Y-108226977D01*
X73916977Y-108069781D01*
X74004894Y-107944223D01*
X74041331Y-107892185D01*
X74041332Y-107892183D01*
X74044488Y-107887676D01*
X74046811Y-107882694D01*
X74046814Y-107882689D01*
X74095805Y-107777627D01*
X74142723Y-107724342D01*
X74211000Y-107704881D01*
X74278960Y-107725423D01*
X74324195Y-107777627D01*
X74373186Y-107882689D01*
X74373189Y-107882694D01*
X74375512Y-107887676D01*
X74378668Y-107892183D01*
X74378669Y-107892185D01*
X74415107Y-107944223D01*
X74503023Y-108069781D01*
X74660219Y-108226977D01*
X74664727Y-108230134D01*
X74664730Y-108230136D01*
X74740495Y-108283187D01*
X74842323Y-108354488D01*
X74847305Y-108356811D01*
X74847310Y-108356814D01*
X75037810Y-108445645D01*
X75043804Y-108448440D01*
X75049112Y-108449862D01*
X75049114Y-108449863D01*
X75114949Y-108467503D01*
X75258537Y-108505978D01*
X75480000Y-108525353D01*
X75701463Y-108505978D01*
X75845051Y-108467503D01*
X75910886Y-108449863D01*
X75910888Y-108449862D01*
X75916196Y-108448440D01*
X75922190Y-108445645D01*
X76112690Y-108356814D01*
X76112695Y-108356811D01*
X76117677Y-108354488D01*
X76219505Y-108283187D01*
X76295270Y-108230136D01*
X76295273Y-108230134D01*
X76299781Y-108226977D01*
X76456977Y-108069781D01*
X76544894Y-107944223D01*
X76581331Y-107892185D01*
X76581332Y-107892183D01*
X76584488Y-107887676D01*
X76586811Y-107882694D01*
X76586814Y-107882689D01*
X76635805Y-107777627D01*
X76682723Y-107724342D01*
X76751000Y-107704881D01*
X76818960Y-107725423D01*
X76864195Y-107777627D01*
X76913186Y-107882689D01*
X76913189Y-107882694D01*
X76915512Y-107887676D01*
X76918668Y-107892183D01*
X76918669Y-107892185D01*
X76955107Y-107944223D01*
X77043023Y-108069781D01*
X77200219Y-108226977D01*
X77204727Y-108230134D01*
X77204730Y-108230136D01*
X77280495Y-108283187D01*
X77382323Y-108354488D01*
X77387305Y-108356811D01*
X77387310Y-108356814D01*
X77577810Y-108445645D01*
X77583804Y-108448440D01*
X77589112Y-108449862D01*
X77589114Y-108449863D01*
X77654949Y-108467503D01*
X77798537Y-108505978D01*
X78020000Y-108525353D01*
X78241463Y-108505978D01*
X78385051Y-108467503D01*
X78450886Y-108449863D01*
X78450888Y-108449862D01*
X78456196Y-108448440D01*
X78462190Y-108445645D01*
X78652690Y-108356814D01*
X78652695Y-108356811D01*
X78657677Y-108354488D01*
X78759505Y-108283187D01*
X78835270Y-108230136D01*
X78835273Y-108230134D01*
X78839781Y-108226977D01*
X78996977Y-108069781D01*
X79084894Y-107944223D01*
X79121331Y-107892185D01*
X79121332Y-107892183D01*
X79124488Y-107887676D01*
X79126811Y-107882694D01*
X79126814Y-107882689D01*
X79175805Y-107777627D01*
X79222723Y-107724342D01*
X79291000Y-107704881D01*
X79358960Y-107725423D01*
X79404195Y-107777627D01*
X79453186Y-107882689D01*
X79453189Y-107882694D01*
X79455512Y-107887676D01*
X79458668Y-107892183D01*
X79458669Y-107892185D01*
X79495107Y-107944223D01*
X79583023Y-108069781D01*
X79740219Y-108226977D01*
X79744727Y-108230134D01*
X79744730Y-108230136D01*
X79820495Y-108283187D01*
X79922323Y-108354488D01*
X79927305Y-108356811D01*
X79927310Y-108356814D01*
X80117810Y-108445645D01*
X80123804Y-108448440D01*
X80129112Y-108449862D01*
X80129114Y-108449863D01*
X80194949Y-108467503D01*
X80338537Y-108505978D01*
X80560000Y-108525353D01*
X80781463Y-108505978D01*
X80925051Y-108467503D01*
X80990886Y-108449863D01*
X80990888Y-108449862D01*
X80996196Y-108448440D01*
X81002190Y-108445645D01*
X81192690Y-108356814D01*
X81192695Y-108356811D01*
X81197677Y-108354488D01*
X81299505Y-108283187D01*
X81375270Y-108230136D01*
X81375273Y-108230134D01*
X81379781Y-108226977D01*
X81536977Y-108069781D01*
X81624894Y-107944223D01*
X81661331Y-107892185D01*
X81661332Y-107892183D01*
X81664488Y-107887676D01*
X81666811Y-107882694D01*
X81666814Y-107882689D01*
X81715805Y-107777627D01*
X81762723Y-107724342D01*
X81831000Y-107704881D01*
X81898960Y-107725423D01*
X81944195Y-107777627D01*
X81993186Y-107882689D01*
X81993189Y-107882694D01*
X81995512Y-107887676D01*
X81998668Y-107892183D01*
X81998669Y-107892185D01*
X82035107Y-107944223D01*
X82123023Y-108069781D01*
X82280219Y-108226977D01*
X82284727Y-108230134D01*
X82284730Y-108230136D01*
X82360495Y-108283187D01*
X82462323Y-108354488D01*
X82467305Y-108356811D01*
X82467310Y-108356814D01*
X82657810Y-108445645D01*
X82663804Y-108448440D01*
X82669112Y-108449862D01*
X82669114Y-108449863D01*
X82734949Y-108467503D01*
X82878537Y-108505978D01*
X83100000Y-108525353D01*
X83321463Y-108505978D01*
X83465051Y-108467503D01*
X83530886Y-108449863D01*
X83530888Y-108449862D01*
X83536196Y-108448440D01*
X83542190Y-108445645D01*
X83732690Y-108356814D01*
X83732695Y-108356811D01*
X83737677Y-108354488D01*
X83839505Y-108283187D01*
X83915270Y-108230136D01*
X83915273Y-108230134D01*
X83919781Y-108226977D01*
X84076977Y-108069781D01*
X84164894Y-107944223D01*
X84201331Y-107892185D01*
X84201332Y-107892183D01*
X84204488Y-107887676D01*
X84206811Y-107882694D01*
X84206814Y-107882689D01*
X84255805Y-107777627D01*
X84302723Y-107724342D01*
X84371000Y-107704881D01*
X84438960Y-107725423D01*
X84484195Y-107777627D01*
X84533186Y-107882689D01*
X84533189Y-107882694D01*
X84535512Y-107887676D01*
X84538668Y-107892183D01*
X84538669Y-107892185D01*
X84575107Y-107944223D01*
X84663023Y-108069781D01*
X84820219Y-108226977D01*
X84824727Y-108230134D01*
X84824730Y-108230136D01*
X84900495Y-108283187D01*
X85002323Y-108354488D01*
X85007305Y-108356811D01*
X85007310Y-108356814D01*
X85197810Y-108445645D01*
X85203804Y-108448440D01*
X85209112Y-108449862D01*
X85209114Y-108449863D01*
X85274949Y-108467503D01*
X85418537Y-108505978D01*
X85640000Y-108525353D01*
X85861463Y-108505978D01*
X86005051Y-108467503D01*
X86070886Y-108449863D01*
X86070888Y-108449862D01*
X86076196Y-108448440D01*
X86082190Y-108445645D01*
X86272690Y-108356814D01*
X86272695Y-108356811D01*
X86277677Y-108354488D01*
X86379505Y-108283187D01*
X86455270Y-108230136D01*
X86455273Y-108230134D01*
X86459781Y-108226977D01*
X86616977Y-108069781D01*
X86704894Y-107944223D01*
X86741331Y-107892185D01*
X86741332Y-107892183D01*
X86744488Y-107887676D01*
X86746811Y-107882694D01*
X86746814Y-107882689D01*
X86795805Y-107777627D01*
X86842723Y-107724342D01*
X86911000Y-107704881D01*
X86978960Y-107725423D01*
X87024195Y-107777627D01*
X87073186Y-107882689D01*
X87073189Y-107882694D01*
X87075512Y-107887676D01*
X87078668Y-107892183D01*
X87078669Y-107892185D01*
X87115107Y-107944223D01*
X87203023Y-108069781D01*
X87360219Y-108226977D01*
X87364727Y-108230134D01*
X87364730Y-108230136D01*
X87440495Y-108283187D01*
X87542323Y-108354488D01*
X87547305Y-108356811D01*
X87547310Y-108356814D01*
X87737810Y-108445645D01*
X87743804Y-108448440D01*
X87749112Y-108449862D01*
X87749114Y-108449863D01*
X87814949Y-108467503D01*
X87958537Y-108505978D01*
X88180000Y-108525353D01*
X88401463Y-108505978D01*
X88545051Y-108467503D01*
X88610886Y-108449863D01*
X88610888Y-108449862D01*
X88616196Y-108448440D01*
X88622190Y-108445645D01*
X88812690Y-108356814D01*
X88812695Y-108356811D01*
X88817677Y-108354488D01*
X88919505Y-108283187D01*
X88995270Y-108230136D01*
X88995273Y-108230134D01*
X88999781Y-108226977D01*
X89156977Y-108069781D01*
X89244894Y-107944223D01*
X89281331Y-107892185D01*
X89281332Y-107892183D01*
X89284488Y-107887676D01*
X89286811Y-107882694D01*
X89286814Y-107882689D01*
X89335805Y-107777627D01*
X89382723Y-107724342D01*
X89451000Y-107704881D01*
X89518960Y-107725423D01*
X89564195Y-107777627D01*
X89613186Y-107882689D01*
X89613189Y-107882694D01*
X89615512Y-107887676D01*
X89618668Y-107892183D01*
X89618669Y-107892185D01*
X89655107Y-107944223D01*
X89743023Y-108069781D01*
X89900219Y-108226977D01*
X89904727Y-108230134D01*
X89904730Y-108230136D01*
X89980495Y-108283187D01*
X90082323Y-108354488D01*
X90087305Y-108356811D01*
X90087310Y-108356814D01*
X90277810Y-108445645D01*
X90283804Y-108448440D01*
X90289112Y-108449862D01*
X90289114Y-108449863D01*
X90354949Y-108467503D01*
X90498537Y-108505978D01*
X90720000Y-108525353D01*
X90941463Y-108505978D01*
X91085051Y-108467503D01*
X91150886Y-108449863D01*
X91150888Y-108449862D01*
X91156196Y-108448440D01*
X91162190Y-108445645D01*
X91352690Y-108356814D01*
X91352695Y-108356811D01*
X91357677Y-108354488D01*
X91459505Y-108283187D01*
X91535270Y-108230136D01*
X91535273Y-108230134D01*
X91539781Y-108226977D01*
X91696977Y-108069781D01*
X91784894Y-107944223D01*
X91821331Y-107892185D01*
X91821332Y-107892183D01*
X91824488Y-107887676D01*
X91826811Y-107882694D01*
X91826814Y-107882689D01*
X91875805Y-107777627D01*
X91922723Y-107724342D01*
X91991000Y-107704881D01*
X92058960Y-107725423D01*
X92104195Y-107777627D01*
X92153186Y-107882689D01*
X92153189Y-107882694D01*
X92155512Y-107887676D01*
X92158668Y-107892183D01*
X92158669Y-107892185D01*
X92195107Y-107944223D01*
X92283023Y-108069781D01*
X92440219Y-108226977D01*
X92444727Y-108230134D01*
X92444730Y-108230136D01*
X92520495Y-108283187D01*
X92622323Y-108354488D01*
X92627305Y-108356811D01*
X92627310Y-108356814D01*
X92817810Y-108445645D01*
X92823804Y-108448440D01*
X92829112Y-108449862D01*
X92829114Y-108449863D01*
X92894949Y-108467503D01*
X93038537Y-108505978D01*
X93260000Y-108525353D01*
X93481463Y-108505978D01*
X93625051Y-108467503D01*
X93690886Y-108449863D01*
X93690888Y-108449862D01*
X93696196Y-108448440D01*
X93702190Y-108445645D01*
X93892690Y-108356814D01*
X93892695Y-108356811D01*
X93897677Y-108354488D01*
X93999505Y-108283187D01*
X94075270Y-108230136D01*
X94075273Y-108230134D01*
X94079781Y-108226977D01*
X94236977Y-108069781D01*
X94324894Y-107944223D01*
X94361331Y-107892185D01*
X94361332Y-107892183D01*
X94364488Y-107887676D01*
X94366811Y-107882694D01*
X94366814Y-107882689D01*
X94415805Y-107777627D01*
X94462723Y-107724342D01*
X94531000Y-107704881D01*
X94598960Y-107725423D01*
X94644195Y-107777627D01*
X94693186Y-107882689D01*
X94693189Y-107882694D01*
X94695512Y-107887676D01*
X94698668Y-107892183D01*
X94698669Y-107892185D01*
X94735107Y-107944223D01*
X94823023Y-108069781D01*
X94980219Y-108226977D01*
X94984727Y-108230134D01*
X94984730Y-108230136D01*
X95060495Y-108283187D01*
X95162323Y-108354488D01*
X95167305Y-108356811D01*
X95167310Y-108356814D01*
X95357810Y-108445645D01*
X95363804Y-108448440D01*
X95369112Y-108449862D01*
X95369114Y-108449863D01*
X95434949Y-108467503D01*
X95578537Y-108505978D01*
X95800000Y-108525353D01*
X96021463Y-108505978D01*
X96165051Y-108467503D01*
X96230886Y-108449863D01*
X96230888Y-108449862D01*
X96236196Y-108448440D01*
X96242190Y-108445645D01*
X96432690Y-108356814D01*
X96432695Y-108356811D01*
X96437677Y-108354488D01*
X96539505Y-108283187D01*
X96615270Y-108230136D01*
X96615273Y-108230134D01*
X96619781Y-108226977D01*
X96776977Y-108069781D01*
X96864894Y-107944223D01*
X96901331Y-107892185D01*
X96901332Y-107892183D01*
X96904488Y-107887676D01*
X96906811Y-107882694D01*
X96906814Y-107882689D01*
X96996117Y-107691178D01*
X96996118Y-107691177D01*
X96998440Y-107686196D01*
X97055978Y-107471463D01*
X97075353Y-107250000D01*
X97055978Y-107028537D01*
X96998440Y-106813804D01*
X96955805Y-106722373D01*
X96906814Y-106617311D01*
X96906811Y-106617306D01*
X96904488Y-106612324D01*
X96901331Y-106607815D01*
X96780136Y-106434730D01*
X96780134Y-106434727D01*
X96776977Y-106430219D01*
X96619781Y-106273023D01*
X96615273Y-106269866D01*
X96615270Y-106269864D01*
X96539505Y-106216813D01*
X96437677Y-106145512D01*
X96432695Y-106143189D01*
X96432690Y-106143186D01*
X96241178Y-106053883D01*
X96241177Y-106053882D01*
X96236196Y-106051560D01*
X96230888Y-106050138D01*
X96230886Y-106050137D01*
X96165051Y-106032497D01*
X96021463Y-105994022D01*
X95800000Y-105974647D01*
X95578537Y-105994022D01*
X95434949Y-106032497D01*
X95369114Y-106050137D01*
X95369112Y-106050138D01*
X95363804Y-106051560D01*
X95358823Y-106053882D01*
X95358822Y-106053883D01*
X95167311Y-106143186D01*
X95167306Y-106143189D01*
X95162324Y-106145512D01*
X95157817Y-106148668D01*
X95157815Y-106148669D01*
X94984730Y-106269864D01*
X94984727Y-106269866D01*
X94980219Y-106273023D01*
X94823023Y-106430219D01*
X94819866Y-106434727D01*
X94819864Y-106434730D01*
X94698669Y-106607815D01*
X94695512Y-106612324D01*
X94693189Y-106617306D01*
X94693186Y-106617311D01*
X94644195Y-106722373D01*
X94597277Y-106775658D01*
X94529000Y-106795119D01*
X94461040Y-106774577D01*
X94415805Y-106722373D01*
X94366814Y-106617311D01*
X94366811Y-106617306D01*
X94364488Y-106612324D01*
X94361331Y-106607815D01*
X94240136Y-106434730D01*
X94240134Y-106434727D01*
X94236977Y-106430219D01*
X94079781Y-106273023D01*
X94075273Y-106269866D01*
X94075270Y-106269864D01*
X93999505Y-106216813D01*
X93897677Y-106145512D01*
X93892695Y-106143189D01*
X93892690Y-106143186D01*
X93701178Y-106053883D01*
X93701177Y-106053882D01*
X93696196Y-106051560D01*
X93690888Y-106050138D01*
X93690886Y-106050137D01*
X93625051Y-106032497D01*
X93481463Y-105994022D01*
X93260000Y-105974647D01*
X93038537Y-105994022D01*
X92894949Y-106032497D01*
X92829114Y-106050137D01*
X92829112Y-106050138D01*
X92823804Y-106051560D01*
X92818823Y-106053882D01*
X92818822Y-106053883D01*
X92627311Y-106143186D01*
X92627306Y-106143189D01*
X92622324Y-106145512D01*
X92617817Y-106148668D01*
X92617815Y-106148669D01*
X92444730Y-106269864D01*
X92444727Y-106269866D01*
X92440219Y-106273023D01*
X92283023Y-106430219D01*
X92279866Y-106434727D01*
X92279864Y-106434730D01*
X92158669Y-106607815D01*
X92155512Y-106612324D01*
X92153189Y-106617306D01*
X92153186Y-106617311D01*
X92104195Y-106722373D01*
X92057277Y-106775658D01*
X91989000Y-106795119D01*
X91921040Y-106774577D01*
X91875805Y-106722373D01*
X91826814Y-106617311D01*
X91826811Y-106617306D01*
X91824488Y-106612324D01*
X91821331Y-106607815D01*
X91700136Y-106434730D01*
X91700134Y-106434727D01*
X91696977Y-106430219D01*
X91539781Y-106273023D01*
X91535273Y-106269866D01*
X91535270Y-106269864D01*
X91459505Y-106216813D01*
X91357677Y-106145512D01*
X91352695Y-106143189D01*
X91352690Y-106143186D01*
X91161178Y-106053883D01*
X91161177Y-106053882D01*
X91156196Y-106051560D01*
X91150888Y-106050138D01*
X91150886Y-106050137D01*
X91085051Y-106032497D01*
X90941463Y-105994022D01*
X90720000Y-105974647D01*
X90498537Y-105994022D01*
X90354949Y-106032497D01*
X90289114Y-106050137D01*
X90289112Y-106050138D01*
X90283804Y-106051560D01*
X90278823Y-106053882D01*
X90278822Y-106053883D01*
X90087311Y-106143186D01*
X90087306Y-106143189D01*
X90082324Y-106145512D01*
X90077817Y-106148668D01*
X90077815Y-106148669D01*
X89904730Y-106269864D01*
X89904727Y-106269866D01*
X89900219Y-106273023D01*
X89743023Y-106430219D01*
X89739866Y-106434727D01*
X89739864Y-106434730D01*
X89618669Y-106607815D01*
X89615512Y-106612324D01*
X89613189Y-106617306D01*
X89613186Y-106617311D01*
X89564195Y-106722373D01*
X89517277Y-106775658D01*
X89449000Y-106795119D01*
X89381040Y-106774577D01*
X89335805Y-106722373D01*
X89286814Y-106617311D01*
X89286811Y-106617306D01*
X89284488Y-106612324D01*
X89281331Y-106607815D01*
X89160136Y-106434730D01*
X89160134Y-106434727D01*
X89156977Y-106430219D01*
X88999781Y-106273023D01*
X88995273Y-106269866D01*
X88995270Y-106269864D01*
X88919505Y-106216813D01*
X88817677Y-106145512D01*
X88812695Y-106143189D01*
X88812690Y-106143186D01*
X88621178Y-106053883D01*
X88621177Y-106053882D01*
X88616196Y-106051560D01*
X88610888Y-106050138D01*
X88610886Y-106050137D01*
X88545051Y-106032497D01*
X88401463Y-105994022D01*
X88180000Y-105974647D01*
X87958537Y-105994022D01*
X87814949Y-106032497D01*
X87749114Y-106050137D01*
X87749112Y-106050138D01*
X87743804Y-106051560D01*
X87738823Y-106053882D01*
X87738822Y-106053883D01*
X87547311Y-106143186D01*
X87547306Y-106143189D01*
X87542324Y-106145512D01*
X87537817Y-106148668D01*
X87537815Y-106148669D01*
X87364730Y-106269864D01*
X87364727Y-106269866D01*
X87360219Y-106273023D01*
X87203023Y-106430219D01*
X87199866Y-106434727D01*
X87199864Y-106434730D01*
X87078669Y-106607815D01*
X87075512Y-106612324D01*
X87073189Y-106617306D01*
X87073186Y-106617311D01*
X87024195Y-106722373D01*
X86977277Y-106775658D01*
X86909000Y-106795119D01*
X86841040Y-106774577D01*
X86795805Y-106722373D01*
X86746814Y-106617311D01*
X86746811Y-106617306D01*
X86744488Y-106612324D01*
X86741331Y-106607815D01*
X86620136Y-106434730D01*
X86620134Y-106434727D01*
X86616977Y-106430219D01*
X86459781Y-106273023D01*
X86455273Y-106269866D01*
X86455270Y-106269864D01*
X86379505Y-106216813D01*
X86277677Y-106145512D01*
X86272695Y-106143189D01*
X86272690Y-106143186D01*
X86081178Y-106053883D01*
X86081177Y-106053882D01*
X86076196Y-106051560D01*
X86070888Y-106050138D01*
X86070886Y-106050137D01*
X86005051Y-106032497D01*
X85861463Y-105994022D01*
X85640000Y-105974647D01*
X85418537Y-105994022D01*
X85274949Y-106032497D01*
X85209114Y-106050137D01*
X85209112Y-106050138D01*
X85203804Y-106051560D01*
X85198823Y-106053882D01*
X85198822Y-106053883D01*
X85007311Y-106143186D01*
X85007306Y-106143189D01*
X85002324Y-106145512D01*
X84997817Y-106148668D01*
X84997815Y-106148669D01*
X84824730Y-106269864D01*
X84824727Y-106269866D01*
X84820219Y-106273023D01*
X84663023Y-106430219D01*
X84659866Y-106434727D01*
X84659864Y-106434730D01*
X84538669Y-106607815D01*
X84535512Y-106612324D01*
X84533189Y-106617306D01*
X84533186Y-106617311D01*
X84484195Y-106722373D01*
X84437277Y-106775658D01*
X84369000Y-106795119D01*
X84301040Y-106774577D01*
X84255805Y-106722373D01*
X84206814Y-106617311D01*
X84206811Y-106617306D01*
X84204488Y-106612324D01*
X84201331Y-106607815D01*
X84080136Y-106434730D01*
X84080134Y-106434727D01*
X84076977Y-106430219D01*
X83919781Y-106273023D01*
X83915273Y-106269866D01*
X83915270Y-106269864D01*
X83839505Y-106216813D01*
X83737677Y-106145512D01*
X83732695Y-106143189D01*
X83732690Y-106143186D01*
X83541178Y-106053883D01*
X83541177Y-106053882D01*
X83536196Y-106051560D01*
X83530888Y-106050138D01*
X83530886Y-106050137D01*
X83465051Y-106032497D01*
X83321463Y-105994022D01*
X83100000Y-105974647D01*
X82878537Y-105994022D01*
X82734949Y-106032497D01*
X82669114Y-106050137D01*
X82669112Y-106050138D01*
X82663804Y-106051560D01*
X82658823Y-106053882D01*
X82658822Y-106053883D01*
X82467311Y-106143186D01*
X82467306Y-106143189D01*
X82462324Y-106145512D01*
X82457817Y-106148668D01*
X82457815Y-106148669D01*
X82284730Y-106269864D01*
X82284727Y-106269866D01*
X82280219Y-106273023D01*
X82123023Y-106430219D01*
X82119866Y-106434727D01*
X82119864Y-106434730D01*
X81998669Y-106607815D01*
X81995512Y-106612324D01*
X81993189Y-106617306D01*
X81993186Y-106617311D01*
X81944195Y-106722373D01*
X81897277Y-106775658D01*
X81829000Y-106795119D01*
X81761040Y-106774577D01*
X81715805Y-106722373D01*
X81666814Y-106617311D01*
X81666811Y-106617306D01*
X81664488Y-106612324D01*
X81661331Y-106607815D01*
X81540136Y-106434730D01*
X81540134Y-106434727D01*
X81536977Y-106430219D01*
X81379781Y-106273023D01*
X81375273Y-106269866D01*
X81375270Y-106269864D01*
X81299505Y-106216813D01*
X81197677Y-106145512D01*
X81192695Y-106143189D01*
X81192690Y-106143186D01*
X81001178Y-106053883D01*
X81001177Y-106053882D01*
X80996196Y-106051560D01*
X80990888Y-106050138D01*
X80990886Y-106050137D01*
X80925051Y-106032497D01*
X80781463Y-105994022D01*
X80560000Y-105974647D01*
X80338537Y-105994022D01*
X80194949Y-106032497D01*
X80129114Y-106050137D01*
X80129112Y-106050138D01*
X80123804Y-106051560D01*
X80118823Y-106053882D01*
X80118822Y-106053883D01*
X79927311Y-106143186D01*
X79927306Y-106143189D01*
X79922324Y-106145512D01*
X79917817Y-106148668D01*
X79917815Y-106148669D01*
X79744730Y-106269864D01*
X79744727Y-106269866D01*
X79740219Y-106273023D01*
X79583023Y-106430219D01*
X79579866Y-106434727D01*
X79579864Y-106434730D01*
X79458669Y-106607815D01*
X79455512Y-106612324D01*
X79453189Y-106617306D01*
X79453186Y-106617311D01*
X79404195Y-106722373D01*
X79357277Y-106775658D01*
X79289000Y-106795119D01*
X79221040Y-106774577D01*
X79175805Y-106722373D01*
X79126814Y-106617311D01*
X79126811Y-106617306D01*
X79124488Y-106612324D01*
X79121331Y-106607815D01*
X79000136Y-106434730D01*
X79000134Y-106434727D01*
X78996977Y-106430219D01*
X78839781Y-106273023D01*
X78835273Y-106269866D01*
X78835270Y-106269864D01*
X78759505Y-106216813D01*
X78657677Y-106145512D01*
X78652695Y-106143189D01*
X78652690Y-106143186D01*
X78461178Y-106053883D01*
X78461177Y-106053882D01*
X78456196Y-106051560D01*
X78450888Y-106050138D01*
X78450886Y-106050137D01*
X78385051Y-106032497D01*
X78241463Y-105994022D01*
X78020000Y-105974647D01*
X77798537Y-105994022D01*
X77654949Y-106032497D01*
X77589114Y-106050137D01*
X77589112Y-106050138D01*
X77583804Y-106051560D01*
X77578823Y-106053882D01*
X77578822Y-106053883D01*
X77387311Y-106143186D01*
X77387306Y-106143189D01*
X77382324Y-106145512D01*
X77377817Y-106148668D01*
X77377815Y-106148669D01*
X77204730Y-106269864D01*
X77204727Y-106269866D01*
X77200219Y-106273023D01*
X77043023Y-106430219D01*
X77039866Y-106434727D01*
X77039864Y-106434730D01*
X76918669Y-106607815D01*
X76915512Y-106612324D01*
X76913189Y-106617306D01*
X76913186Y-106617311D01*
X76864195Y-106722373D01*
X76817277Y-106775658D01*
X76749000Y-106795119D01*
X76681040Y-106774577D01*
X76635805Y-106722373D01*
X76586814Y-106617311D01*
X76586811Y-106617306D01*
X76584488Y-106612324D01*
X76581331Y-106607815D01*
X76460136Y-106434730D01*
X76460134Y-106434727D01*
X76456977Y-106430219D01*
X76299781Y-106273023D01*
X76295273Y-106269866D01*
X76295270Y-106269864D01*
X76219505Y-106216813D01*
X76117677Y-106145512D01*
X76112695Y-106143189D01*
X76112690Y-106143186D01*
X75921178Y-106053883D01*
X75921177Y-106053882D01*
X75916196Y-106051560D01*
X75910888Y-106050138D01*
X75910886Y-106050137D01*
X75845051Y-106032497D01*
X75701463Y-105994022D01*
X75480000Y-105974647D01*
X75258537Y-105994022D01*
X75114949Y-106032497D01*
X75049114Y-106050137D01*
X75049112Y-106050138D01*
X75043804Y-106051560D01*
X75038823Y-106053882D01*
X75038822Y-106053883D01*
X74847311Y-106143186D01*
X74847306Y-106143189D01*
X74842324Y-106145512D01*
X74837817Y-106148668D01*
X74837815Y-106148669D01*
X74664730Y-106269864D01*
X74664727Y-106269866D01*
X74660219Y-106273023D01*
X74503023Y-106430219D01*
X74499866Y-106434727D01*
X74499864Y-106434730D01*
X74378669Y-106607815D01*
X74375512Y-106612324D01*
X74373189Y-106617306D01*
X74373186Y-106617311D01*
X74324195Y-106722373D01*
X74277277Y-106775658D01*
X74209000Y-106795119D01*
X74141040Y-106774577D01*
X74095805Y-106722373D01*
X74046814Y-106617311D01*
X74046811Y-106617306D01*
X74044488Y-106612324D01*
X74041331Y-106607815D01*
X73920136Y-106434730D01*
X73920134Y-106434727D01*
X73916977Y-106430219D01*
X73759781Y-106273023D01*
X73755273Y-106269866D01*
X73755270Y-106269864D01*
X73679505Y-106216813D01*
X73577677Y-106145512D01*
X73572695Y-106143189D01*
X73572690Y-106143186D01*
X73381178Y-106053883D01*
X73381177Y-106053882D01*
X73376196Y-106051560D01*
X73370888Y-106050138D01*
X73370886Y-106050137D01*
X73305051Y-106032497D01*
X73161463Y-105994022D01*
X72940000Y-105974647D01*
X72718537Y-105994022D01*
X72574949Y-106032497D01*
X72509114Y-106050137D01*
X72509112Y-106050138D01*
X72503804Y-106051560D01*
X72498823Y-106053882D01*
X72498822Y-106053883D01*
X72307311Y-106143186D01*
X72307306Y-106143189D01*
X72302324Y-106145512D01*
X72297817Y-106148668D01*
X72297815Y-106148669D01*
X72124730Y-106269864D01*
X72124727Y-106269866D01*
X72120219Y-106273023D01*
X71963023Y-106430219D01*
X71959866Y-106434727D01*
X71959864Y-106434730D01*
X71838669Y-106607815D01*
X71835512Y-106612324D01*
X71833189Y-106617306D01*
X71833186Y-106617311D01*
X71784195Y-106722373D01*
X71737277Y-106775658D01*
X71669000Y-106795119D01*
X71601040Y-106774577D01*
X71555805Y-106722373D01*
X71506814Y-106617311D01*
X71506811Y-106617306D01*
X71504488Y-106612324D01*
X71501331Y-106607815D01*
X71380136Y-106434730D01*
X71380134Y-106434727D01*
X71376977Y-106430219D01*
X71219781Y-106273023D01*
X71215273Y-106269866D01*
X71215270Y-106269864D01*
X71139505Y-106216813D01*
X71037677Y-106145512D01*
X71032695Y-106143189D01*
X71032690Y-106143186D01*
X70841178Y-106053883D01*
X70841177Y-106053882D01*
X70836196Y-106051560D01*
X70830888Y-106050138D01*
X70830886Y-106050137D01*
X70765051Y-106032497D01*
X70621463Y-105994022D01*
X70400000Y-105974647D01*
X70178537Y-105994022D01*
X70034949Y-106032497D01*
X69969114Y-106050137D01*
X69969112Y-106050138D01*
X69963804Y-106051560D01*
X69958823Y-106053882D01*
X69958822Y-106053883D01*
X69767311Y-106143186D01*
X69767306Y-106143189D01*
X69762324Y-106145512D01*
X69757817Y-106148668D01*
X69757815Y-106148669D01*
X69584730Y-106269864D01*
X69584727Y-106269866D01*
X69580219Y-106273023D01*
X69423023Y-106430219D01*
X69419866Y-106434727D01*
X69419864Y-106434730D01*
X69298669Y-106607815D01*
X69295512Y-106612324D01*
X69293189Y-106617306D01*
X69293186Y-106617311D01*
X69244195Y-106722373D01*
X69197277Y-106775658D01*
X69129000Y-106795119D01*
X69061040Y-106774577D01*
X69015805Y-106722373D01*
X68966814Y-106617311D01*
X68966811Y-106617306D01*
X68964488Y-106612324D01*
X68961331Y-106607815D01*
X68840136Y-106434730D01*
X68840134Y-106434727D01*
X68836977Y-106430219D01*
X68679781Y-106273023D01*
X68675273Y-106269866D01*
X68675270Y-106269864D01*
X68599505Y-106216813D01*
X68497677Y-106145512D01*
X68492695Y-106143189D01*
X68492690Y-106143186D01*
X68301178Y-106053883D01*
X68301177Y-106053882D01*
X68296196Y-106051560D01*
X68290888Y-106050138D01*
X68290886Y-106050137D01*
X68225051Y-106032497D01*
X68081463Y-105994022D01*
X67860000Y-105974647D01*
X67638537Y-105994022D01*
X67494949Y-106032497D01*
X67429114Y-106050137D01*
X67429112Y-106050138D01*
X67423804Y-106051560D01*
X67418823Y-106053882D01*
X67418822Y-106053883D01*
X67227311Y-106143186D01*
X67227306Y-106143189D01*
X67222324Y-106145512D01*
X67217817Y-106148668D01*
X67217815Y-106148669D01*
X67044730Y-106269864D01*
X67044727Y-106269866D01*
X67040219Y-106273023D01*
X66883023Y-106430219D01*
X66879866Y-106434727D01*
X66879864Y-106434730D01*
X66758669Y-106607815D01*
X66755512Y-106612324D01*
X66753189Y-106617306D01*
X66753186Y-106617311D01*
X66704195Y-106722373D01*
X66657277Y-106775658D01*
X66589000Y-106795119D01*
X66521040Y-106774577D01*
X66475805Y-106722373D01*
X66426814Y-106617311D01*
X66426811Y-106617306D01*
X66424488Y-106612324D01*
X66421331Y-106607815D01*
X66300136Y-106434730D01*
X66300134Y-106434727D01*
X66296977Y-106430219D01*
X66139781Y-106273023D01*
X66135273Y-106269866D01*
X66135270Y-106269864D01*
X66059505Y-106216813D01*
X65957677Y-106145512D01*
X65952695Y-106143189D01*
X65952690Y-106143186D01*
X65761178Y-106053883D01*
X65761177Y-106053882D01*
X65756196Y-106051560D01*
X65750888Y-106050138D01*
X65750886Y-106050137D01*
X65685051Y-106032497D01*
X65541463Y-105994022D01*
X65320000Y-105974647D01*
X65098537Y-105994022D01*
X64954949Y-106032497D01*
X64889114Y-106050137D01*
X64889112Y-106050138D01*
X64883804Y-106051560D01*
X64878823Y-106053882D01*
X64878822Y-106053883D01*
X64687311Y-106143186D01*
X64687306Y-106143189D01*
X64682324Y-106145512D01*
X64677817Y-106148668D01*
X64677815Y-106148669D01*
X64504730Y-106269864D01*
X64504727Y-106269866D01*
X64500219Y-106273023D01*
X64343023Y-106430219D01*
X64339866Y-106434727D01*
X64339864Y-106434730D01*
X64218669Y-106607815D01*
X64215512Y-106612324D01*
X64213189Y-106617306D01*
X64213186Y-106617311D01*
X64163919Y-106722965D01*
X64117001Y-106776250D01*
X64048724Y-106795711D01*
X63980764Y-106775169D01*
X63935529Y-106722965D01*
X63886377Y-106617559D01*
X63880897Y-106608068D01*
X63850206Y-106564235D01*
X63839729Y-106555860D01*
X63826282Y-106562928D01*
X63152022Y-107237188D01*
X63144408Y-107251132D01*
X62414356Y-107251132D01*
X62415592Y-107248868D01*
X62415461Y-107247035D01*
X62411210Y-107240420D01*
X61732997Y-106562207D01*
X61721223Y-106555777D01*
X61709207Y-106565074D01*
X61679103Y-106608068D01*
X61673623Y-106617559D01*
X61624471Y-106722965D01*
X61577553Y-106776250D01*
X61509276Y-106795711D01*
X61441316Y-106775169D01*
X61396081Y-106722965D01*
X61346814Y-106617311D01*
X61346811Y-106617306D01*
X61344488Y-106612324D01*
X61341331Y-106607815D01*
X61220136Y-106434730D01*
X61220134Y-106434727D01*
X61216977Y-106430219D01*
X61059781Y-106273023D01*
X61055273Y-106269866D01*
X61055270Y-106269864D01*
X60979505Y-106216813D01*
X60941599Y-106190271D01*
X62085860Y-106190271D01*
X62092928Y-106203718D01*
X62767188Y-106877978D01*
X62781132Y-106885592D01*
X62782965Y-106885461D01*
X62789580Y-106881210D01*
X63467793Y-106202997D01*
X63474223Y-106191223D01*
X63464926Y-106179207D01*
X63421931Y-106149102D01*
X63412445Y-106143624D01*
X63221007Y-106054355D01*
X63210715Y-106050609D01*
X63006691Y-105995941D01*
X62995896Y-105994038D01*
X62785475Y-105975628D01*
X62774525Y-105975628D01*
X62564104Y-105994038D01*
X62553309Y-105995941D01*
X62349285Y-106050609D01*
X62338993Y-106054355D01*
X62147559Y-106143623D01*
X62138068Y-106149103D01*
X62094235Y-106179794D01*
X62085860Y-106190271D01*
X60941599Y-106190271D01*
X60877677Y-106145512D01*
X60872695Y-106143189D01*
X60872690Y-106143186D01*
X60681178Y-106053883D01*
X60681177Y-106053882D01*
X60676196Y-106051560D01*
X60670888Y-106050138D01*
X60670886Y-106050137D01*
X60605051Y-106032497D01*
X60461463Y-105994022D01*
X60240000Y-105974647D01*
X60018537Y-105994022D01*
X59874949Y-106032497D01*
X59809114Y-106050137D01*
X59809112Y-106050138D01*
X59803804Y-106051560D01*
X59798823Y-106053882D01*
X59798822Y-106053883D01*
X59607311Y-106143186D01*
X59607306Y-106143189D01*
X59602324Y-106145512D01*
X59597817Y-106148668D01*
X59597815Y-106148669D01*
X59424730Y-106269864D01*
X59424727Y-106269866D01*
X59420219Y-106273023D01*
X59263023Y-106430219D01*
X59259866Y-106434727D01*
X59259864Y-106434730D01*
X59138669Y-106607815D01*
X59135512Y-106612324D01*
X59133189Y-106617306D01*
X59133186Y-106617311D01*
X59084195Y-106722373D01*
X59041560Y-106813804D01*
X58984022Y-107028537D01*
X58964647Y-107250000D01*
X49515602Y-107250000D01*
X49513717Y-99500000D01*
X118000000Y-99500000D01*
X130000000Y-99500000D01*
X130000000Y-89500000D01*
X118000000Y-89500000D01*
X118000000Y-99500000D01*
X49513717Y-99500000D01*
X49512346Y-93866064D01*
X49510592Y-86656695D01*
X132887251Y-86656695D01*
X132887548Y-86661848D01*
X132887548Y-86661851D01*
X132893011Y-86756590D01*
X132900110Y-86879715D01*
X132901247Y-86884761D01*
X132901248Y-86884767D01*
X132921119Y-86972939D01*
X132949222Y-87097639D01*
X133033266Y-87304616D01*
X133149987Y-87495088D01*
X133296250Y-87663938D01*
X133468126Y-87806632D01*
X133661000Y-87919338D01*
X133869692Y-87999030D01*
X133874760Y-88000061D01*
X133874763Y-88000062D01*
X133982017Y-88021883D01*
X134088597Y-88043567D01*
X134093772Y-88043757D01*
X134093774Y-88043757D01*
X134306673Y-88051564D01*
X134306677Y-88051564D01*
X134311837Y-88051753D01*
X134316957Y-88051097D01*
X134316959Y-88051097D01*
X134528288Y-88024025D01*
X134528289Y-88024025D01*
X134533416Y-88023368D01*
X134538366Y-88021883D01*
X134742429Y-87960661D01*
X134742434Y-87960659D01*
X134747384Y-87959174D01*
X134947994Y-87860896D01*
X135129860Y-87731173D01*
X135288096Y-87573489D01*
X135347594Y-87490689D01*
X135415435Y-87396277D01*
X135418453Y-87392077D01*
X135517430Y-87191811D01*
X135582370Y-86978069D01*
X135611529Y-86756590D01*
X135613156Y-86690000D01*
X135594852Y-86467361D01*
X135540431Y-86250702D01*
X135451354Y-86045840D01*
X135330014Y-85858277D01*
X135326540Y-85854459D01*
X135326533Y-85854450D01*
X135182435Y-85696088D01*
X135151383Y-85632242D01*
X135159779Y-85561744D01*
X135204956Y-85506976D01*
X135231400Y-85493307D01*
X135338052Y-85453325D01*
X135353649Y-85444786D01*
X135455724Y-85368285D01*
X135468285Y-85355724D01*
X135544786Y-85253649D01*
X135553324Y-85238054D01*
X135598478Y-85117606D01*
X135602105Y-85102351D01*
X135607631Y-85051486D01*
X135608000Y-85044672D01*
X135608000Y-84422115D01*
X135603525Y-84406876D01*
X135602135Y-84405671D01*
X135594452Y-84404000D01*
X132910116Y-84404000D01*
X132894877Y-84408475D01*
X132893672Y-84409865D01*
X132892001Y-84417548D01*
X132892001Y-85044669D01*
X132892371Y-85051490D01*
X132897895Y-85102352D01*
X132901521Y-85117604D01*
X132946676Y-85238054D01*
X132955214Y-85253649D01*
X133031715Y-85355724D01*
X133044276Y-85368285D01*
X133146351Y-85444786D01*
X133161946Y-85453324D01*
X133270827Y-85494142D01*
X133327591Y-85536784D01*
X133352291Y-85603345D01*
X133337083Y-85672694D01*
X133317691Y-85699175D01*
X133194200Y-85828401D01*
X133190629Y-85832138D01*
X133064743Y-86016680D01*
X132970688Y-86219305D01*
X132910989Y-86434570D01*
X132887251Y-86656695D01*
X49510592Y-86656695D01*
X49509916Y-83877885D01*
X132892000Y-83877885D01*
X132896475Y-83893124D01*
X132897865Y-83894329D01*
X132905548Y-83896000D01*
X133977885Y-83896000D01*
X133993124Y-83891525D01*
X133994329Y-83890135D01*
X133996000Y-83882452D01*
X133996000Y-83877885D01*
X134504000Y-83877885D01*
X134508475Y-83893124D01*
X134509865Y-83894329D01*
X134517548Y-83896000D01*
X135589884Y-83896000D01*
X135605123Y-83891525D01*
X135606328Y-83890135D01*
X135607999Y-83882452D01*
X135607999Y-83255331D01*
X135607629Y-83248510D01*
X135602105Y-83197648D01*
X135598479Y-83182396D01*
X135553324Y-83061946D01*
X135544786Y-83046351D01*
X135468285Y-82944276D01*
X135455724Y-82931715D01*
X135353649Y-82855214D01*
X135338054Y-82846676D01*
X135217606Y-82801522D01*
X135202351Y-82797895D01*
X135151486Y-82792369D01*
X135144672Y-82792000D01*
X134522115Y-82792000D01*
X134506876Y-82796475D01*
X134505671Y-82797865D01*
X134504000Y-82805548D01*
X134504000Y-83877885D01*
X133996000Y-83877885D01*
X133996000Y-82810116D01*
X133991525Y-82794877D01*
X133990135Y-82793672D01*
X133982452Y-82792001D01*
X133355331Y-82792001D01*
X133348510Y-82792371D01*
X133297648Y-82797895D01*
X133282396Y-82801521D01*
X133161946Y-82846676D01*
X133146351Y-82855214D01*
X133044276Y-82931715D01*
X133031715Y-82944276D01*
X132955214Y-83046351D01*
X132946676Y-83061946D01*
X132901522Y-83182394D01*
X132897895Y-83197649D01*
X132892369Y-83248514D01*
X132892000Y-83255328D01*
X132892000Y-83877885D01*
X49509916Y-83877885D01*
X49509423Y-81850000D01*
X58964647Y-81850000D01*
X58984022Y-82071463D01*
X59041560Y-82286196D01*
X59043882Y-82291177D01*
X59043883Y-82291178D01*
X59133186Y-82482689D01*
X59133189Y-82482694D01*
X59135512Y-82487676D01*
X59138668Y-82492183D01*
X59138669Y-82492185D01*
X59258647Y-82663531D01*
X59263023Y-82669781D01*
X59420219Y-82826977D01*
X59424727Y-82830134D01*
X59424730Y-82830136D01*
X59448352Y-82846676D01*
X59602323Y-82954488D01*
X59607305Y-82956811D01*
X59607310Y-82956814D01*
X59797810Y-83045645D01*
X59803804Y-83048440D01*
X59809112Y-83049862D01*
X59809114Y-83049863D01*
X59856705Y-83062615D01*
X60018537Y-83105978D01*
X60240000Y-83125353D01*
X60461463Y-83105978D01*
X60623295Y-83062615D01*
X60670886Y-83049863D01*
X60670888Y-83049862D01*
X60676196Y-83048440D01*
X60682190Y-83045645D01*
X60872690Y-82956814D01*
X60872695Y-82956811D01*
X60877677Y-82954488D01*
X60942959Y-82908777D01*
X62085777Y-82908777D01*
X62095074Y-82920793D01*
X62138069Y-82950898D01*
X62147555Y-82956376D01*
X62338993Y-83045645D01*
X62349285Y-83049391D01*
X62553309Y-83104059D01*
X62564104Y-83105962D01*
X62774525Y-83124372D01*
X62785475Y-83124372D01*
X62995896Y-83105962D01*
X63006691Y-83104059D01*
X63210715Y-83049391D01*
X63221007Y-83045645D01*
X63412445Y-82956376D01*
X63421931Y-82950898D01*
X63465764Y-82920207D01*
X63474139Y-82909729D01*
X63467071Y-82896281D01*
X62792812Y-82222022D01*
X62778868Y-82214408D01*
X62777035Y-82214539D01*
X62770420Y-82218790D01*
X62092207Y-82897003D01*
X62085777Y-82908777D01*
X60942959Y-82908777D01*
X61031648Y-82846676D01*
X61055270Y-82830136D01*
X61055273Y-82830134D01*
X61059781Y-82826977D01*
X61216977Y-82669781D01*
X61221354Y-82663531D01*
X61341331Y-82492185D01*
X61341332Y-82492183D01*
X61344488Y-82487676D01*
X61346811Y-82482694D01*
X61346814Y-82482689D01*
X61396081Y-82377035D01*
X61442999Y-82323750D01*
X61511276Y-82304289D01*
X61579236Y-82324831D01*
X61624471Y-82377035D01*
X61673623Y-82482441D01*
X61679103Y-82491932D01*
X61709794Y-82535765D01*
X61720271Y-82544140D01*
X61733718Y-82537072D01*
X62407978Y-81862812D01*
X62414356Y-81851132D01*
X63144408Y-81851132D01*
X63144539Y-81852965D01*
X63148790Y-81859580D01*
X63827003Y-82537793D01*
X63838777Y-82544223D01*
X63850793Y-82534926D01*
X63880897Y-82491932D01*
X63886377Y-82482441D01*
X63935529Y-82377035D01*
X63982447Y-82323750D01*
X64050724Y-82304289D01*
X64118684Y-82324831D01*
X64163919Y-82377035D01*
X64213186Y-82482689D01*
X64213189Y-82482694D01*
X64215512Y-82487676D01*
X64218668Y-82492183D01*
X64218669Y-82492185D01*
X64338647Y-82663531D01*
X64343023Y-82669781D01*
X64500219Y-82826977D01*
X64504727Y-82830134D01*
X64504730Y-82830136D01*
X64528352Y-82846676D01*
X64682323Y-82954488D01*
X64687305Y-82956811D01*
X64687310Y-82956814D01*
X64877810Y-83045645D01*
X64883804Y-83048440D01*
X64889112Y-83049862D01*
X64889114Y-83049863D01*
X64936705Y-83062615D01*
X65098537Y-83105978D01*
X65320000Y-83125353D01*
X65541463Y-83105978D01*
X65703295Y-83062615D01*
X65750886Y-83049863D01*
X65750888Y-83049862D01*
X65756196Y-83048440D01*
X65762190Y-83045645D01*
X65952690Y-82956814D01*
X65952695Y-82956811D01*
X65957677Y-82954488D01*
X66111648Y-82846676D01*
X66135270Y-82830136D01*
X66135273Y-82830134D01*
X66139781Y-82826977D01*
X66296977Y-82669781D01*
X66301354Y-82663531D01*
X66421331Y-82492185D01*
X66421332Y-82492183D01*
X66424488Y-82487676D01*
X66426811Y-82482694D01*
X66426814Y-82482689D01*
X66475805Y-82377627D01*
X66522723Y-82324342D01*
X66591000Y-82304881D01*
X66658960Y-82325423D01*
X66704195Y-82377627D01*
X66753186Y-82482689D01*
X66753189Y-82482694D01*
X66755512Y-82487676D01*
X66758668Y-82492183D01*
X66758669Y-82492185D01*
X66878647Y-82663531D01*
X66883023Y-82669781D01*
X67040219Y-82826977D01*
X67044727Y-82830134D01*
X67044730Y-82830136D01*
X67068352Y-82846676D01*
X67222323Y-82954488D01*
X67227305Y-82956811D01*
X67227310Y-82956814D01*
X67417810Y-83045645D01*
X67423804Y-83048440D01*
X67429112Y-83049862D01*
X67429114Y-83049863D01*
X67476705Y-83062615D01*
X67638537Y-83105978D01*
X67860000Y-83125353D01*
X68081463Y-83105978D01*
X68243295Y-83062615D01*
X68290886Y-83049863D01*
X68290888Y-83049862D01*
X68296196Y-83048440D01*
X68302190Y-83045645D01*
X68492690Y-82956814D01*
X68492695Y-82956811D01*
X68497677Y-82954488D01*
X68651648Y-82846676D01*
X68675270Y-82830136D01*
X68675273Y-82830134D01*
X68679781Y-82826977D01*
X68836977Y-82669781D01*
X68841354Y-82663531D01*
X68961331Y-82492185D01*
X68961332Y-82492183D01*
X68964488Y-82487676D01*
X68966811Y-82482694D01*
X68966814Y-82482689D01*
X69015805Y-82377627D01*
X69062723Y-82324342D01*
X69131000Y-82304881D01*
X69198960Y-82325423D01*
X69244195Y-82377627D01*
X69293186Y-82482689D01*
X69293189Y-82482694D01*
X69295512Y-82487676D01*
X69298668Y-82492183D01*
X69298669Y-82492185D01*
X69418647Y-82663531D01*
X69423023Y-82669781D01*
X69580219Y-82826977D01*
X69584727Y-82830134D01*
X69584730Y-82830136D01*
X69608352Y-82846676D01*
X69762323Y-82954488D01*
X69767305Y-82956811D01*
X69767310Y-82956814D01*
X69957810Y-83045645D01*
X69963804Y-83048440D01*
X69969112Y-83049862D01*
X69969114Y-83049863D01*
X70016705Y-83062615D01*
X70178537Y-83105978D01*
X70400000Y-83125353D01*
X70621463Y-83105978D01*
X70783295Y-83062615D01*
X70830886Y-83049863D01*
X70830888Y-83049862D01*
X70836196Y-83048440D01*
X70842190Y-83045645D01*
X71032690Y-82956814D01*
X71032695Y-82956811D01*
X71037677Y-82954488D01*
X71191648Y-82846676D01*
X71215270Y-82830136D01*
X71215273Y-82830134D01*
X71219781Y-82826977D01*
X71376977Y-82669781D01*
X71381354Y-82663531D01*
X71501331Y-82492185D01*
X71501332Y-82492183D01*
X71504488Y-82487676D01*
X71506811Y-82482694D01*
X71506814Y-82482689D01*
X71555805Y-82377627D01*
X71602723Y-82324342D01*
X71671000Y-82304881D01*
X71738960Y-82325423D01*
X71784195Y-82377627D01*
X71833186Y-82482689D01*
X71833189Y-82482694D01*
X71835512Y-82487676D01*
X71838668Y-82492183D01*
X71838669Y-82492185D01*
X71958647Y-82663531D01*
X71963023Y-82669781D01*
X72120219Y-82826977D01*
X72124727Y-82830134D01*
X72124730Y-82830136D01*
X72148352Y-82846676D01*
X72302323Y-82954488D01*
X72307305Y-82956811D01*
X72307310Y-82956814D01*
X72497810Y-83045645D01*
X72503804Y-83048440D01*
X72509112Y-83049862D01*
X72509114Y-83049863D01*
X72556705Y-83062615D01*
X72718537Y-83105978D01*
X72940000Y-83125353D01*
X73161463Y-83105978D01*
X73323295Y-83062615D01*
X73370886Y-83049863D01*
X73370888Y-83049862D01*
X73376196Y-83048440D01*
X73382190Y-83045645D01*
X73572690Y-82956814D01*
X73572695Y-82956811D01*
X73577677Y-82954488D01*
X73731648Y-82846676D01*
X73755270Y-82830136D01*
X73755273Y-82830134D01*
X73759781Y-82826977D01*
X73916977Y-82669781D01*
X73921354Y-82663531D01*
X74041331Y-82492185D01*
X74041332Y-82492183D01*
X74044488Y-82487676D01*
X74046811Y-82482694D01*
X74046814Y-82482689D01*
X74095805Y-82377627D01*
X74142723Y-82324342D01*
X74211000Y-82304881D01*
X74278960Y-82325423D01*
X74324195Y-82377627D01*
X74373186Y-82482689D01*
X74373189Y-82482694D01*
X74375512Y-82487676D01*
X74378668Y-82492183D01*
X74378669Y-82492185D01*
X74498647Y-82663531D01*
X74503023Y-82669781D01*
X74660219Y-82826977D01*
X74664727Y-82830134D01*
X74664730Y-82830136D01*
X74688352Y-82846676D01*
X74842323Y-82954488D01*
X74847305Y-82956811D01*
X74847310Y-82956814D01*
X75037810Y-83045645D01*
X75043804Y-83048440D01*
X75049112Y-83049862D01*
X75049114Y-83049863D01*
X75096705Y-83062615D01*
X75258537Y-83105978D01*
X75480000Y-83125353D01*
X75701463Y-83105978D01*
X75863295Y-83062615D01*
X75910886Y-83049863D01*
X75910888Y-83049862D01*
X75916196Y-83048440D01*
X75922190Y-83045645D01*
X76112690Y-82956814D01*
X76112695Y-82956811D01*
X76117677Y-82954488D01*
X76271648Y-82846676D01*
X76295270Y-82830136D01*
X76295273Y-82830134D01*
X76299781Y-82826977D01*
X76456977Y-82669781D01*
X76461354Y-82663531D01*
X76581331Y-82492185D01*
X76581332Y-82492183D01*
X76584488Y-82487676D01*
X76586811Y-82482694D01*
X76586814Y-82482689D01*
X76635805Y-82377627D01*
X76682723Y-82324342D01*
X76751000Y-82304881D01*
X76818960Y-82325423D01*
X76864195Y-82377627D01*
X76913186Y-82482689D01*
X76913189Y-82482694D01*
X76915512Y-82487676D01*
X76918668Y-82492183D01*
X76918669Y-82492185D01*
X77038647Y-82663531D01*
X77043023Y-82669781D01*
X77200219Y-82826977D01*
X77204727Y-82830134D01*
X77204730Y-82830136D01*
X77228352Y-82846676D01*
X77382323Y-82954488D01*
X77387305Y-82956811D01*
X77387310Y-82956814D01*
X77577810Y-83045645D01*
X77583804Y-83048440D01*
X77589112Y-83049862D01*
X77589114Y-83049863D01*
X77636705Y-83062615D01*
X77798537Y-83105978D01*
X78020000Y-83125353D01*
X78241463Y-83105978D01*
X78403295Y-83062615D01*
X78450886Y-83049863D01*
X78450888Y-83049862D01*
X78456196Y-83048440D01*
X78462190Y-83045645D01*
X78652690Y-82956814D01*
X78652695Y-82956811D01*
X78657677Y-82954488D01*
X78811648Y-82846676D01*
X78835270Y-82830136D01*
X78835273Y-82830134D01*
X78839781Y-82826977D01*
X78996977Y-82669781D01*
X79001354Y-82663531D01*
X79121331Y-82492185D01*
X79121332Y-82492183D01*
X79124488Y-82487676D01*
X79126811Y-82482694D01*
X79126814Y-82482689D01*
X79175805Y-82377627D01*
X79222723Y-82324342D01*
X79291000Y-82304881D01*
X79358960Y-82325423D01*
X79404195Y-82377627D01*
X79453186Y-82482689D01*
X79453189Y-82482694D01*
X79455512Y-82487676D01*
X79458668Y-82492183D01*
X79458669Y-82492185D01*
X79578647Y-82663531D01*
X79583023Y-82669781D01*
X79740219Y-82826977D01*
X79744727Y-82830134D01*
X79744730Y-82830136D01*
X79768352Y-82846676D01*
X79922323Y-82954488D01*
X79927305Y-82956811D01*
X79927310Y-82956814D01*
X80117810Y-83045645D01*
X80123804Y-83048440D01*
X80129112Y-83049862D01*
X80129114Y-83049863D01*
X80176705Y-83062615D01*
X80338537Y-83105978D01*
X80560000Y-83125353D01*
X80781463Y-83105978D01*
X80943295Y-83062615D01*
X80990886Y-83049863D01*
X80990888Y-83049862D01*
X80996196Y-83048440D01*
X81002190Y-83045645D01*
X81192690Y-82956814D01*
X81192695Y-82956811D01*
X81197677Y-82954488D01*
X81351648Y-82846676D01*
X81375270Y-82830136D01*
X81375273Y-82830134D01*
X81379781Y-82826977D01*
X81536977Y-82669781D01*
X81541354Y-82663531D01*
X81661331Y-82492185D01*
X81661332Y-82492183D01*
X81664488Y-82487676D01*
X81666811Y-82482694D01*
X81666814Y-82482689D01*
X81715805Y-82377627D01*
X81762723Y-82324342D01*
X81831000Y-82304881D01*
X81898960Y-82325423D01*
X81944195Y-82377627D01*
X81993186Y-82482689D01*
X81993189Y-82482694D01*
X81995512Y-82487676D01*
X81998668Y-82492183D01*
X81998669Y-82492185D01*
X82118647Y-82663531D01*
X82123023Y-82669781D01*
X82280219Y-82826977D01*
X82284727Y-82830134D01*
X82284730Y-82830136D01*
X82308352Y-82846676D01*
X82462323Y-82954488D01*
X82467305Y-82956811D01*
X82467310Y-82956814D01*
X82657810Y-83045645D01*
X82663804Y-83048440D01*
X82669112Y-83049862D01*
X82669114Y-83049863D01*
X82716705Y-83062615D01*
X82878537Y-83105978D01*
X83100000Y-83125353D01*
X83321463Y-83105978D01*
X83483295Y-83062615D01*
X83530886Y-83049863D01*
X83530888Y-83049862D01*
X83536196Y-83048440D01*
X83542190Y-83045645D01*
X83732690Y-82956814D01*
X83732695Y-82956811D01*
X83737677Y-82954488D01*
X83891648Y-82846676D01*
X83915270Y-82830136D01*
X83915273Y-82830134D01*
X83919781Y-82826977D01*
X84076977Y-82669781D01*
X84081354Y-82663531D01*
X84201331Y-82492185D01*
X84201332Y-82492183D01*
X84204488Y-82487676D01*
X84206811Y-82482694D01*
X84206814Y-82482689D01*
X84255805Y-82377627D01*
X84302723Y-82324342D01*
X84371000Y-82304881D01*
X84438960Y-82325423D01*
X84484195Y-82377627D01*
X84533186Y-82482689D01*
X84533189Y-82482694D01*
X84535512Y-82487676D01*
X84538668Y-82492183D01*
X84538669Y-82492185D01*
X84658647Y-82663531D01*
X84663023Y-82669781D01*
X84820219Y-82826977D01*
X84824727Y-82830134D01*
X84824730Y-82830136D01*
X84848352Y-82846676D01*
X85002323Y-82954488D01*
X85007305Y-82956811D01*
X85007310Y-82956814D01*
X85197810Y-83045645D01*
X85203804Y-83048440D01*
X85209112Y-83049862D01*
X85209114Y-83049863D01*
X85256705Y-83062615D01*
X85418537Y-83105978D01*
X85640000Y-83125353D01*
X85861463Y-83105978D01*
X86023295Y-83062615D01*
X86070886Y-83049863D01*
X86070888Y-83049862D01*
X86076196Y-83048440D01*
X86082190Y-83045645D01*
X86272690Y-82956814D01*
X86272695Y-82956811D01*
X86277677Y-82954488D01*
X86431648Y-82846676D01*
X86455270Y-82830136D01*
X86455273Y-82830134D01*
X86459781Y-82826977D01*
X86616977Y-82669781D01*
X86621354Y-82663531D01*
X86741331Y-82492185D01*
X86741332Y-82492183D01*
X86744488Y-82487676D01*
X86746811Y-82482694D01*
X86746814Y-82482689D01*
X86795805Y-82377627D01*
X86842723Y-82324342D01*
X86911000Y-82304881D01*
X86978960Y-82325423D01*
X87024195Y-82377627D01*
X87073186Y-82482689D01*
X87073189Y-82482694D01*
X87075512Y-82487676D01*
X87078668Y-82492183D01*
X87078669Y-82492185D01*
X87198647Y-82663531D01*
X87203023Y-82669781D01*
X87360219Y-82826977D01*
X87364727Y-82830134D01*
X87364730Y-82830136D01*
X87388352Y-82846676D01*
X87542323Y-82954488D01*
X87547305Y-82956811D01*
X87547310Y-82956814D01*
X87737810Y-83045645D01*
X87743804Y-83048440D01*
X87749112Y-83049862D01*
X87749114Y-83049863D01*
X87796705Y-83062615D01*
X87958537Y-83105978D01*
X88180000Y-83125353D01*
X88401463Y-83105978D01*
X88563295Y-83062615D01*
X88610886Y-83049863D01*
X88610888Y-83049862D01*
X88616196Y-83048440D01*
X88622190Y-83045645D01*
X88812690Y-82956814D01*
X88812695Y-82956811D01*
X88817677Y-82954488D01*
X88971648Y-82846676D01*
X88995270Y-82830136D01*
X88995273Y-82830134D01*
X88999781Y-82826977D01*
X89156977Y-82669781D01*
X89161354Y-82663531D01*
X89281331Y-82492185D01*
X89281332Y-82492183D01*
X89284488Y-82487676D01*
X89286811Y-82482694D01*
X89286814Y-82482689D01*
X89335805Y-82377627D01*
X89382723Y-82324342D01*
X89451000Y-82304881D01*
X89518960Y-82325423D01*
X89564195Y-82377627D01*
X89613186Y-82482689D01*
X89613189Y-82482694D01*
X89615512Y-82487676D01*
X89618668Y-82492183D01*
X89618669Y-82492185D01*
X89738647Y-82663531D01*
X89743023Y-82669781D01*
X89900219Y-82826977D01*
X89904727Y-82830134D01*
X89904730Y-82830136D01*
X89928352Y-82846676D01*
X90082323Y-82954488D01*
X90087305Y-82956811D01*
X90087310Y-82956814D01*
X90277810Y-83045645D01*
X90283804Y-83048440D01*
X90289112Y-83049862D01*
X90289114Y-83049863D01*
X90336705Y-83062615D01*
X90498537Y-83105978D01*
X90720000Y-83125353D01*
X90941463Y-83105978D01*
X91103295Y-83062615D01*
X91150886Y-83049863D01*
X91150888Y-83049862D01*
X91156196Y-83048440D01*
X91162190Y-83045645D01*
X91352690Y-82956814D01*
X91352695Y-82956811D01*
X91357677Y-82954488D01*
X91511648Y-82846676D01*
X91535270Y-82830136D01*
X91535273Y-82830134D01*
X91539781Y-82826977D01*
X91696977Y-82669781D01*
X91701354Y-82663531D01*
X91821331Y-82492185D01*
X91821332Y-82492183D01*
X91824488Y-82487676D01*
X91826811Y-82482694D01*
X91826814Y-82482689D01*
X91875805Y-82377627D01*
X91922723Y-82324342D01*
X91991000Y-82304881D01*
X92058960Y-82325423D01*
X92104195Y-82377627D01*
X92153186Y-82482689D01*
X92153189Y-82482694D01*
X92155512Y-82487676D01*
X92158668Y-82492183D01*
X92158669Y-82492185D01*
X92278647Y-82663531D01*
X92283023Y-82669781D01*
X92440219Y-82826977D01*
X92444727Y-82830134D01*
X92444730Y-82830136D01*
X92468352Y-82846676D01*
X92622323Y-82954488D01*
X92627305Y-82956811D01*
X92627310Y-82956814D01*
X92817810Y-83045645D01*
X92823804Y-83048440D01*
X92829112Y-83049862D01*
X92829114Y-83049863D01*
X92876705Y-83062615D01*
X93038537Y-83105978D01*
X93260000Y-83125353D01*
X93481463Y-83105978D01*
X93643295Y-83062615D01*
X93690886Y-83049863D01*
X93690888Y-83049862D01*
X93696196Y-83048440D01*
X93702190Y-83045645D01*
X93892690Y-82956814D01*
X93892695Y-82956811D01*
X93897677Y-82954488D01*
X94051648Y-82846676D01*
X94075270Y-82830136D01*
X94075273Y-82830134D01*
X94079781Y-82826977D01*
X94236977Y-82669781D01*
X94241354Y-82663531D01*
X94300287Y-82579365D01*
X94355744Y-82535037D01*
X94426363Y-82527728D01*
X94489724Y-82559759D01*
X94525709Y-82620960D01*
X94529500Y-82651636D01*
X94529500Y-82660134D01*
X94536255Y-82722316D01*
X94587385Y-82858705D01*
X94674739Y-82975261D01*
X94791295Y-83062615D01*
X94927684Y-83113745D01*
X94989866Y-83120500D01*
X96610134Y-83120500D01*
X96672316Y-83113745D01*
X96808705Y-83062615D01*
X96925261Y-82975261D01*
X97012615Y-82858705D01*
X97063745Y-82722316D01*
X97070500Y-82660134D01*
X97070500Y-81039866D01*
X97063745Y-80977684D01*
X97012615Y-80841295D01*
X96925261Y-80724739D01*
X96808705Y-80637385D01*
X96672316Y-80586255D01*
X96610134Y-80579500D01*
X94989866Y-80579500D01*
X94927684Y-80586255D01*
X94791295Y-80637385D01*
X94674739Y-80724739D01*
X94587385Y-80841295D01*
X94536255Y-80977684D01*
X94529500Y-81039866D01*
X94529500Y-81048364D01*
X94509498Y-81116485D01*
X94455842Y-81162978D01*
X94385568Y-81173082D01*
X94320988Y-81143588D01*
X94300287Y-81120635D01*
X94240136Y-81034730D01*
X94240134Y-81034727D01*
X94236977Y-81030219D01*
X94079781Y-80873023D01*
X94075273Y-80869866D01*
X94075270Y-80869864D01*
X93999505Y-80816813D01*
X93897677Y-80745512D01*
X93892695Y-80743189D01*
X93892690Y-80743186D01*
X93701178Y-80653883D01*
X93701177Y-80653882D01*
X93696196Y-80651560D01*
X93690888Y-80650138D01*
X93690886Y-80650137D01*
X93625051Y-80632497D01*
X93481463Y-80594022D01*
X93260000Y-80574647D01*
X93038537Y-80594022D01*
X92894949Y-80632497D01*
X92829114Y-80650137D01*
X92829112Y-80650138D01*
X92823804Y-80651560D01*
X92818823Y-80653882D01*
X92818822Y-80653883D01*
X92627311Y-80743186D01*
X92627306Y-80743189D01*
X92622324Y-80745512D01*
X92617817Y-80748668D01*
X92617815Y-80748669D01*
X92444730Y-80869864D01*
X92444727Y-80869866D01*
X92440219Y-80873023D01*
X92283023Y-81030219D01*
X92279866Y-81034727D01*
X92279864Y-81034730D01*
X92182989Y-81173082D01*
X92155512Y-81212324D01*
X92153189Y-81217306D01*
X92153186Y-81217311D01*
X92104195Y-81322373D01*
X92057277Y-81375658D01*
X91989000Y-81395119D01*
X91921040Y-81374577D01*
X91875805Y-81322373D01*
X91826814Y-81217311D01*
X91826811Y-81217306D01*
X91824488Y-81212324D01*
X91797011Y-81173082D01*
X91700136Y-81034730D01*
X91700134Y-81034727D01*
X91696977Y-81030219D01*
X91539781Y-80873023D01*
X91535273Y-80869866D01*
X91535270Y-80869864D01*
X91459505Y-80816813D01*
X91357677Y-80745512D01*
X91352695Y-80743189D01*
X91352690Y-80743186D01*
X91161178Y-80653883D01*
X91161177Y-80653882D01*
X91156196Y-80651560D01*
X91150888Y-80650138D01*
X91150886Y-80650137D01*
X91085051Y-80632497D01*
X90941463Y-80594022D01*
X90720000Y-80574647D01*
X90498537Y-80594022D01*
X90354949Y-80632497D01*
X90289114Y-80650137D01*
X90289112Y-80650138D01*
X90283804Y-80651560D01*
X90278823Y-80653882D01*
X90278822Y-80653883D01*
X90087311Y-80743186D01*
X90087306Y-80743189D01*
X90082324Y-80745512D01*
X90077817Y-80748668D01*
X90077815Y-80748669D01*
X89904730Y-80869864D01*
X89904727Y-80869866D01*
X89900219Y-80873023D01*
X89743023Y-81030219D01*
X89739866Y-81034727D01*
X89739864Y-81034730D01*
X89642989Y-81173082D01*
X89615512Y-81212324D01*
X89613189Y-81217306D01*
X89613186Y-81217311D01*
X89564195Y-81322373D01*
X89517277Y-81375658D01*
X89449000Y-81395119D01*
X89381040Y-81374577D01*
X89335805Y-81322373D01*
X89286814Y-81217311D01*
X89286811Y-81217306D01*
X89284488Y-81212324D01*
X89257011Y-81173082D01*
X89160136Y-81034730D01*
X89160134Y-81034727D01*
X89156977Y-81030219D01*
X88999781Y-80873023D01*
X88995273Y-80869866D01*
X88995270Y-80869864D01*
X88919505Y-80816813D01*
X88817677Y-80745512D01*
X88812695Y-80743189D01*
X88812690Y-80743186D01*
X88621178Y-80653883D01*
X88621177Y-80653882D01*
X88616196Y-80651560D01*
X88610888Y-80650138D01*
X88610886Y-80650137D01*
X88545051Y-80632497D01*
X88401463Y-80594022D01*
X88180000Y-80574647D01*
X87958537Y-80594022D01*
X87814949Y-80632497D01*
X87749114Y-80650137D01*
X87749112Y-80650138D01*
X87743804Y-80651560D01*
X87738823Y-80653882D01*
X87738822Y-80653883D01*
X87547311Y-80743186D01*
X87547306Y-80743189D01*
X87542324Y-80745512D01*
X87537817Y-80748668D01*
X87537815Y-80748669D01*
X87364730Y-80869864D01*
X87364727Y-80869866D01*
X87360219Y-80873023D01*
X87203023Y-81030219D01*
X87199866Y-81034727D01*
X87199864Y-81034730D01*
X87102989Y-81173082D01*
X87075512Y-81212324D01*
X87073189Y-81217306D01*
X87073186Y-81217311D01*
X87024195Y-81322373D01*
X86977277Y-81375658D01*
X86909000Y-81395119D01*
X86841040Y-81374577D01*
X86795805Y-81322373D01*
X86746814Y-81217311D01*
X86746811Y-81217306D01*
X86744488Y-81212324D01*
X86717011Y-81173082D01*
X86620136Y-81034730D01*
X86620134Y-81034727D01*
X86616977Y-81030219D01*
X86459781Y-80873023D01*
X86455273Y-80869866D01*
X86455270Y-80869864D01*
X86379505Y-80816813D01*
X86277677Y-80745512D01*
X86272695Y-80743189D01*
X86272690Y-80743186D01*
X86081178Y-80653883D01*
X86081177Y-80653882D01*
X86076196Y-80651560D01*
X86070888Y-80650138D01*
X86070886Y-80650137D01*
X86005051Y-80632497D01*
X85861463Y-80594022D01*
X85640000Y-80574647D01*
X85418537Y-80594022D01*
X85274949Y-80632497D01*
X85209114Y-80650137D01*
X85209112Y-80650138D01*
X85203804Y-80651560D01*
X85198823Y-80653882D01*
X85198822Y-80653883D01*
X85007311Y-80743186D01*
X85007306Y-80743189D01*
X85002324Y-80745512D01*
X84997817Y-80748668D01*
X84997815Y-80748669D01*
X84824730Y-80869864D01*
X84824727Y-80869866D01*
X84820219Y-80873023D01*
X84663023Y-81030219D01*
X84659866Y-81034727D01*
X84659864Y-81034730D01*
X84562989Y-81173082D01*
X84535512Y-81212324D01*
X84533189Y-81217306D01*
X84533186Y-81217311D01*
X84484195Y-81322373D01*
X84437277Y-81375658D01*
X84369000Y-81395119D01*
X84301040Y-81374577D01*
X84255805Y-81322373D01*
X84206814Y-81217311D01*
X84206811Y-81217306D01*
X84204488Y-81212324D01*
X84177011Y-81173082D01*
X84080136Y-81034730D01*
X84080134Y-81034727D01*
X84076977Y-81030219D01*
X83919781Y-80873023D01*
X83915273Y-80869866D01*
X83915270Y-80869864D01*
X83839505Y-80816813D01*
X83737677Y-80745512D01*
X83732695Y-80743189D01*
X83732690Y-80743186D01*
X83541178Y-80653883D01*
X83541177Y-80653882D01*
X83536196Y-80651560D01*
X83530888Y-80650138D01*
X83530886Y-80650137D01*
X83465051Y-80632497D01*
X83321463Y-80594022D01*
X83100000Y-80574647D01*
X82878537Y-80594022D01*
X82734949Y-80632497D01*
X82669114Y-80650137D01*
X82669112Y-80650138D01*
X82663804Y-80651560D01*
X82658823Y-80653882D01*
X82658822Y-80653883D01*
X82467311Y-80743186D01*
X82467306Y-80743189D01*
X82462324Y-80745512D01*
X82457817Y-80748668D01*
X82457815Y-80748669D01*
X82284730Y-80869864D01*
X82284727Y-80869866D01*
X82280219Y-80873023D01*
X82123023Y-81030219D01*
X82119866Y-81034727D01*
X82119864Y-81034730D01*
X82022989Y-81173082D01*
X81995512Y-81212324D01*
X81993189Y-81217306D01*
X81993186Y-81217311D01*
X81944195Y-81322373D01*
X81897277Y-81375658D01*
X81829000Y-81395119D01*
X81761040Y-81374577D01*
X81715805Y-81322373D01*
X81666814Y-81217311D01*
X81666811Y-81217306D01*
X81664488Y-81212324D01*
X81637011Y-81173082D01*
X81540136Y-81034730D01*
X81540134Y-81034727D01*
X81536977Y-81030219D01*
X81379781Y-80873023D01*
X81375273Y-80869866D01*
X81375270Y-80869864D01*
X81299505Y-80816813D01*
X81197677Y-80745512D01*
X81192695Y-80743189D01*
X81192690Y-80743186D01*
X81001178Y-80653883D01*
X81001177Y-80653882D01*
X80996196Y-80651560D01*
X80990888Y-80650138D01*
X80990886Y-80650137D01*
X80925051Y-80632497D01*
X80781463Y-80594022D01*
X80560000Y-80574647D01*
X80338537Y-80594022D01*
X80194949Y-80632497D01*
X80129114Y-80650137D01*
X80129112Y-80650138D01*
X80123804Y-80651560D01*
X80118823Y-80653882D01*
X80118822Y-80653883D01*
X79927311Y-80743186D01*
X79927306Y-80743189D01*
X79922324Y-80745512D01*
X79917817Y-80748668D01*
X79917815Y-80748669D01*
X79744730Y-80869864D01*
X79744727Y-80869866D01*
X79740219Y-80873023D01*
X79583023Y-81030219D01*
X79579866Y-81034727D01*
X79579864Y-81034730D01*
X79482989Y-81173082D01*
X79455512Y-81212324D01*
X79453189Y-81217306D01*
X79453186Y-81217311D01*
X79404195Y-81322373D01*
X79357277Y-81375658D01*
X79289000Y-81395119D01*
X79221040Y-81374577D01*
X79175805Y-81322373D01*
X79126814Y-81217311D01*
X79126811Y-81217306D01*
X79124488Y-81212324D01*
X79097011Y-81173082D01*
X79000136Y-81034730D01*
X79000134Y-81034727D01*
X78996977Y-81030219D01*
X78839781Y-80873023D01*
X78835273Y-80869866D01*
X78835270Y-80869864D01*
X78759505Y-80816813D01*
X78657677Y-80745512D01*
X78652695Y-80743189D01*
X78652690Y-80743186D01*
X78461178Y-80653883D01*
X78461177Y-80653882D01*
X78456196Y-80651560D01*
X78450888Y-80650138D01*
X78450886Y-80650137D01*
X78385051Y-80632497D01*
X78241463Y-80594022D01*
X78020000Y-80574647D01*
X77798537Y-80594022D01*
X77654949Y-80632497D01*
X77589114Y-80650137D01*
X77589112Y-80650138D01*
X77583804Y-80651560D01*
X77578823Y-80653882D01*
X77578822Y-80653883D01*
X77387311Y-80743186D01*
X77387306Y-80743189D01*
X77382324Y-80745512D01*
X77377817Y-80748668D01*
X77377815Y-80748669D01*
X77204730Y-80869864D01*
X77204727Y-80869866D01*
X77200219Y-80873023D01*
X77043023Y-81030219D01*
X77039866Y-81034727D01*
X77039864Y-81034730D01*
X76942989Y-81173082D01*
X76915512Y-81212324D01*
X76913189Y-81217306D01*
X76913186Y-81217311D01*
X76864195Y-81322373D01*
X76817277Y-81375658D01*
X76749000Y-81395119D01*
X76681040Y-81374577D01*
X76635805Y-81322373D01*
X76586814Y-81217311D01*
X76586811Y-81217306D01*
X76584488Y-81212324D01*
X76557011Y-81173082D01*
X76460136Y-81034730D01*
X76460134Y-81034727D01*
X76456977Y-81030219D01*
X76299781Y-80873023D01*
X76295273Y-80869866D01*
X76295270Y-80869864D01*
X76219505Y-80816813D01*
X76117677Y-80745512D01*
X76112695Y-80743189D01*
X76112690Y-80743186D01*
X75921178Y-80653883D01*
X75921177Y-80653882D01*
X75916196Y-80651560D01*
X75910888Y-80650138D01*
X75910886Y-80650137D01*
X75845051Y-80632497D01*
X75701463Y-80594022D01*
X75480000Y-80574647D01*
X75258537Y-80594022D01*
X75114949Y-80632497D01*
X75049114Y-80650137D01*
X75049112Y-80650138D01*
X75043804Y-80651560D01*
X75038823Y-80653882D01*
X75038822Y-80653883D01*
X74847311Y-80743186D01*
X74847306Y-80743189D01*
X74842324Y-80745512D01*
X74837817Y-80748668D01*
X74837815Y-80748669D01*
X74664730Y-80869864D01*
X74664727Y-80869866D01*
X74660219Y-80873023D01*
X74503023Y-81030219D01*
X74499866Y-81034727D01*
X74499864Y-81034730D01*
X74402989Y-81173082D01*
X74375512Y-81212324D01*
X74373189Y-81217306D01*
X74373186Y-81217311D01*
X74324195Y-81322373D01*
X74277277Y-81375658D01*
X74209000Y-81395119D01*
X74141040Y-81374577D01*
X74095805Y-81322373D01*
X74046814Y-81217311D01*
X74046811Y-81217306D01*
X74044488Y-81212324D01*
X74017011Y-81173082D01*
X73920136Y-81034730D01*
X73920134Y-81034727D01*
X73916977Y-81030219D01*
X73759781Y-80873023D01*
X73755273Y-80869866D01*
X73755270Y-80869864D01*
X73679505Y-80816813D01*
X73577677Y-80745512D01*
X73572695Y-80743189D01*
X73572690Y-80743186D01*
X73381178Y-80653883D01*
X73381177Y-80653882D01*
X73376196Y-80651560D01*
X73370888Y-80650138D01*
X73370886Y-80650137D01*
X73305051Y-80632497D01*
X73161463Y-80594022D01*
X72940000Y-80574647D01*
X72718537Y-80594022D01*
X72574949Y-80632497D01*
X72509114Y-80650137D01*
X72509112Y-80650138D01*
X72503804Y-80651560D01*
X72498823Y-80653882D01*
X72498822Y-80653883D01*
X72307311Y-80743186D01*
X72307306Y-80743189D01*
X72302324Y-80745512D01*
X72297817Y-80748668D01*
X72297815Y-80748669D01*
X72124730Y-80869864D01*
X72124727Y-80869866D01*
X72120219Y-80873023D01*
X71963023Y-81030219D01*
X71959866Y-81034727D01*
X71959864Y-81034730D01*
X71862989Y-81173082D01*
X71835512Y-81212324D01*
X71833189Y-81217306D01*
X71833186Y-81217311D01*
X71784195Y-81322373D01*
X71737277Y-81375658D01*
X71669000Y-81395119D01*
X71601040Y-81374577D01*
X71555805Y-81322373D01*
X71506814Y-81217311D01*
X71506811Y-81217306D01*
X71504488Y-81212324D01*
X71477011Y-81173082D01*
X71380136Y-81034730D01*
X71380134Y-81034727D01*
X71376977Y-81030219D01*
X71219781Y-80873023D01*
X71215273Y-80869866D01*
X71215270Y-80869864D01*
X71139505Y-80816813D01*
X71037677Y-80745512D01*
X71032695Y-80743189D01*
X71032690Y-80743186D01*
X70841178Y-80653883D01*
X70841177Y-80653882D01*
X70836196Y-80651560D01*
X70830888Y-80650138D01*
X70830886Y-80650137D01*
X70765051Y-80632497D01*
X70621463Y-80594022D01*
X70400000Y-80574647D01*
X70178537Y-80594022D01*
X70034949Y-80632497D01*
X69969114Y-80650137D01*
X69969112Y-80650138D01*
X69963804Y-80651560D01*
X69958823Y-80653882D01*
X69958822Y-80653883D01*
X69767311Y-80743186D01*
X69767306Y-80743189D01*
X69762324Y-80745512D01*
X69757817Y-80748668D01*
X69757815Y-80748669D01*
X69584730Y-80869864D01*
X69584727Y-80869866D01*
X69580219Y-80873023D01*
X69423023Y-81030219D01*
X69419866Y-81034727D01*
X69419864Y-81034730D01*
X69322989Y-81173082D01*
X69295512Y-81212324D01*
X69293189Y-81217306D01*
X69293186Y-81217311D01*
X69244195Y-81322373D01*
X69197277Y-81375658D01*
X69129000Y-81395119D01*
X69061040Y-81374577D01*
X69015805Y-81322373D01*
X68966814Y-81217311D01*
X68966811Y-81217306D01*
X68964488Y-81212324D01*
X68937011Y-81173082D01*
X68840136Y-81034730D01*
X68840134Y-81034727D01*
X68836977Y-81030219D01*
X68679781Y-80873023D01*
X68675273Y-80869866D01*
X68675270Y-80869864D01*
X68599505Y-80816813D01*
X68497677Y-80745512D01*
X68492695Y-80743189D01*
X68492690Y-80743186D01*
X68301178Y-80653883D01*
X68301177Y-80653882D01*
X68296196Y-80651560D01*
X68290888Y-80650138D01*
X68290886Y-80650137D01*
X68225051Y-80632497D01*
X68081463Y-80594022D01*
X67860000Y-80574647D01*
X67638537Y-80594022D01*
X67494949Y-80632497D01*
X67429114Y-80650137D01*
X67429112Y-80650138D01*
X67423804Y-80651560D01*
X67418823Y-80653882D01*
X67418822Y-80653883D01*
X67227311Y-80743186D01*
X67227306Y-80743189D01*
X67222324Y-80745512D01*
X67217817Y-80748668D01*
X67217815Y-80748669D01*
X67044730Y-80869864D01*
X67044727Y-80869866D01*
X67040219Y-80873023D01*
X66883023Y-81030219D01*
X66879866Y-81034727D01*
X66879864Y-81034730D01*
X66782989Y-81173082D01*
X66755512Y-81212324D01*
X66753189Y-81217306D01*
X66753186Y-81217311D01*
X66704195Y-81322373D01*
X66657277Y-81375658D01*
X66589000Y-81395119D01*
X66521040Y-81374577D01*
X66475805Y-81322373D01*
X66426814Y-81217311D01*
X66426811Y-81217306D01*
X66424488Y-81212324D01*
X66397011Y-81173082D01*
X66300136Y-81034730D01*
X66300134Y-81034727D01*
X66296977Y-81030219D01*
X66139781Y-80873023D01*
X66135273Y-80869866D01*
X66135270Y-80869864D01*
X66059505Y-80816813D01*
X65957677Y-80745512D01*
X65952695Y-80743189D01*
X65952690Y-80743186D01*
X65761178Y-80653883D01*
X65761177Y-80653882D01*
X65756196Y-80651560D01*
X65750888Y-80650138D01*
X65750886Y-80650137D01*
X65685051Y-80632497D01*
X65541463Y-80594022D01*
X65320000Y-80574647D01*
X65098537Y-80594022D01*
X64954949Y-80632497D01*
X64889114Y-80650137D01*
X64889112Y-80650138D01*
X64883804Y-80651560D01*
X64878823Y-80653882D01*
X64878822Y-80653883D01*
X64687311Y-80743186D01*
X64687306Y-80743189D01*
X64682324Y-80745512D01*
X64677817Y-80748668D01*
X64677815Y-80748669D01*
X64504730Y-80869864D01*
X64504727Y-80869866D01*
X64500219Y-80873023D01*
X64343023Y-81030219D01*
X64339866Y-81034727D01*
X64339864Y-81034730D01*
X64242989Y-81173082D01*
X64215512Y-81212324D01*
X64213189Y-81217306D01*
X64213186Y-81217311D01*
X64163919Y-81322965D01*
X64117001Y-81376250D01*
X64048724Y-81395711D01*
X63980764Y-81375169D01*
X63935529Y-81322965D01*
X63886377Y-81217559D01*
X63880897Y-81208068D01*
X63850206Y-81164235D01*
X63839729Y-81155860D01*
X63826282Y-81162928D01*
X63152022Y-81837188D01*
X63144408Y-81851132D01*
X62414356Y-81851132D01*
X62415592Y-81848868D01*
X62415461Y-81847035D01*
X62411210Y-81840420D01*
X61732997Y-81162207D01*
X61721223Y-81155777D01*
X61709207Y-81165074D01*
X61679103Y-81208068D01*
X61673623Y-81217559D01*
X61624471Y-81322965D01*
X61577553Y-81376250D01*
X61509276Y-81395711D01*
X61441316Y-81375169D01*
X61396081Y-81322965D01*
X61346814Y-81217311D01*
X61346811Y-81217306D01*
X61344488Y-81212324D01*
X61317011Y-81173082D01*
X61220136Y-81034730D01*
X61220134Y-81034727D01*
X61216977Y-81030219D01*
X61059781Y-80873023D01*
X61055273Y-80869866D01*
X61055270Y-80869864D01*
X60979505Y-80816813D01*
X60941599Y-80790271D01*
X62085860Y-80790271D01*
X62092928Y-80803718D01*
X62767188Y-81477978D01*
X62781132Y-81485592D01*
X62782965Y-81485461D01*
X62789580Y-81481210D01*
X63467793Y-80802997D01*
X63474223Y-80791223D01*
X63464926Y-80779207D01*
X63421931Y-80749102D01*
X63412445Y-80743624D01*
X63221007Y-80654355D01*
X63210715Y-80650609D01*
X63006691Y-80595941D01*
X62995896Y-80594038D01*
X62785475Y-80575628D01*
X62774525Y-80575628D01*
X62564104Y-80594038D01*
X62553309Y-80595941D01*
X62349285Y-80650609D01*
X62338993Y-80654355D01*
X62147559Y-80743623D01*
X62138068Y-80749103D01*
X62094235Y-80779794D01*
X62085860Y-80790271D01*
X60941599Y-80790271D01*
X60877677Y-80745512D01*
X60872695Y-80743189D01*
X60872690Y-80743186D01*
X60681178Y-80653883D01*
X60681177Y-80653882D01*
X60676196Y-80651560D01*
X60670888Y-80650138D01*
X60670886Y-80650137D01*
X60605051Y-80632497D01*
X60461463Y-80594022D01*
X60240000Y-80574647D01*
X60018537Y-80594022D01*
X59874949Y-80632497D01*
X59809114Y-80650137D01*
X59809112Y-80650138D01*
X59803804Y-80651560D01*
X59798823Y-80653882D01*
X59798822Y-80653883D01*
X59607311Y-80743186D01*
X59607306Y-80743189D01*
X59602324Y-80745512D01*
X59597817Y-80748668D01*
X59597815Y-80748669D01*
X59424730Y-80869864D01*
X59424727Y-80869866D01*
X59420219Y-80873023D01*
X59263023Y-81030219D01*
X59259866Y-81034727D01*
X59259864Y-81034730D01*
X59162989Y-81173082D01*
X59135512Y-81212324D01*
X59133189Y-81217306D01*
X59133186Y-81217311D01*
X59084195Y-81322373D01*
X59041560Y-81413804D01*
X58984022Y-81628537D01*
X58964647Y-81850000D01*
X49509423Y-81850000D01*
X49508154Y-76634031D01*
X49528139Y-76565905D01*
X49581784Y-76519399D01*
X49634154Y-76508000D01*
X282366000Y-76508000D01*
X282434121Y-76528002D01*
G37*
%TD.AperFunction*%
%TD*%
M02*
