%TF.GenerationSoftware,KiCad,Pcbnew,(6.0.1)*%
%TF.CreationDate,2022-02-04T16:43:36-05:00*%
%TF.ProjectId,fan,66616e2e-6b69-4636-9164-5f7063625858,rev?*%
%TF.SameCoordinates,Original*%
%TF.FileFunction,Legend,Bot*%
%TF.FilePolarity,Positive*%
%FSLAX46Y46*%
G04 Gerber Fmt 4.6, Leading zero omitted, Abs format (unit mm)*
G04 Created by KiCad (PCBNEW (6.0.1)) date 2022-02-04 16:43:36*
%MOMM*%
%LPD*%
G01*
G04 APERTURE LIST*
%ADD10C,0.150000*%
G04 APERTURE END LIST*
D10*
%TO.C,J1*%
X131736904Y-83625000D02*
X131832142Y-83577380D01*
X131975000Y-83577380D01*
X132117857Y-83625000D01*
X132213095Y-83720238D01*
X132260714Y-83815476D01*
X132308333Y-84005952D01*
X132308333Y-84148809D01*
X132260714Y-84339285D01*
X132213095Y-84434523D01*
X132117857Y-84529761D01*
X131975000Y-84577380D01*
X131879761Y-84577380D01*
X131736904Y-84529761D01*
X131689285Y-84482142D01*
X131689285Y-84148809D01*
X131879761Y-84148809D01*
X131260714Y-84577380D02*
X131260714Y-83577380D01*
X130689285Y-84577380D01*
X130689285Y-83577380D01*
X130213095Y-84577380D02*
X130213095Y-83577380D01*
X129975000Y-83577380D01*
X129832142Y-83625000D01*
X129736904Y-83720238D01*
X129689285Y-83815476D01*
X129641666Y-84005952D01*
X129641666Y-84148809D01*
X129689285Y-84339285D01*
X129736904Y-84434523D01*
X129832142Y-84529761D01*
X129975000Y-84577380D01*
X130213095Y-84577380D01*
X132308333Y-86177380D02*
X131975000Y-87177380D01*
X131641666Y-86177380D01*
X130736904Y-87082142D02*
X130784523Y-87129761D01*
X130927380Y-87177380D01*
X131022619Y-87177380D01*
X131165476Y-87129761D01*
X131260714Y-87034523D01*
X131308333Y-86939285D01*
X131355952Y-86748809D01*
X131355952Y-86605952D01*
X131308333Y-86415476D01*
X131260714Y-86320238D01*
X131165476Y-86225000D01*
X131022619Y-86177380D01*
X130927380Y-86177380D01*
X130784523Y-86225000D01*
X130736904Y-86272619D01*
X129736904Y-87082142D02*
X129784523Y-87129761D01*
X129927380Y-87177380D01*
X130022619Y-87177380D01*
X130165476Y-87129761D01*
X130260714Y-87034523D01*
X130308333Y-86939285D01*
X130355952Y-86748809D01*
X130355952Y-86605952D01*
X130308333Y-86415476D01*
X130260714Y-86320238D01*
X130165476Y-86225000D01*
X130022619Y-86177380D01*
X129927380Y-86177380D01*
X129784523Y-86225000D01*
X129736904Y-86272619D01*
%TD*%
M02*
