%TF.GenerationSoftware,KiCad,Pcbnew,(6.0.1)*%
%TF.CreationDate,2022-02-04T16:43:36-05:00*%
%TF.ProjectId,fan,66616e2e-6b69-4636-9164-5f7063625858,rev?*%
%TF.SameCoordinates,Original*%
%TF.FileFunction,Soldermask,Bot*%
%TF.FilePolarity,Negative*%
%FSLAX46Y46*%
G04 Gerber Fmt 4.6, Leading zero omitted, Abs format (unit mm)*
G04 Created by KiCad (PCBNEW (6.0.1)) date 2022-02-04 16:43:36*
%MOMM*%
%LPD*%
G01*
G04 APERTURE LIST*
G04 Aperture macros list*
%AMRoundRect*
0 Rectangle with rounded corners*
0 $1 Rounding radius*
0 $2 $3 $4 $5 $6 $7 $8 $9 X,Y pos of 4 corners*
0 Add a 4 corners polygon primitive as box body*
4,1,4,$2,$3,$4,$5,$6,$7,$8,$9,$2,$3,0*
0 Add four circle primitives for the rounded corners*
1,1,$1+$1,$2,$3*
1,1,$1+$1,$4,$5*
1,1,$1+$1,$6,$7*
1,1,$1+$1,$8,$9*
0 Add four rect primitives between the rounded corners*
20,1,$1+$1,$2,$3,$4,$5,0*
20,1,$1+$1,$4,$5,$6,$7,0*
20,1,$1+$1,$6,$7,$8,$9,0*
20,1,$1+$1,$8,$9,$2,$3,0*%
G04 Aperture macros list end*
%ADD10C,0.150000*%
%ADD11R,1.524000X1.524000*%
%ADD12C,1.524000*%
%ADD13RoundRect,0.249900X0.400100X-0.275100X0.400100X0.275100X-0.400100X0.275100X-0.400100X-0.275100X0*%
%ADD14O,1.300000X1.050000*%
%ADD15R,1.700000X1.700000*%
%ADD16O,1.700000X1.700000*%
G04 APERTURE END LIST*
D10*
X222000000Y-102500000D02*
X276000000Y-102500000D01*
X276000000Y-102500000D02*
X276000000Y-110500000D01*
X276000000Y-110500000D02*
X222000000Y-110500000D01*
X222000000Y-110500000D02*
X222000000Y-102500000D01*
G36*
X222000000Y-102500000D02*
G01*
X276000000Y-102500000D01*
X276000000Y-110500000D01*
X222000000Y-110500000D01*
X222000000Y-102500000D01*
G37*
X222000000Y-78500000D02*
X276000000Y-78500000D01*
X276000000Y-78500000D02*
X276000000Y-86500000D01*
X276000000Y-86500000D02*
X222000000Y-86500000D01*
X222000000Y-86500000D02*
X222000000Y-78500000D01*
G36*
X222000000Y-78500000D02*
G01*
X276000000Y-78500000D01*
X276000000Y-86500000D01*
X222000000Y-86500000D01*
X222000000Y-78500000D01*
G37*
D11*
%TO.C,U1*%
X95800000Y-81850000D03*
D12*
X93260000Y-81850000D03*
X90720000Y-81850000D03*
X88180000Y-81850000D03*
X85640000Y-81850000D03*
X83100000Y-81850000D03*
X80560000Y-81850000D03*
X78020000Y-81850000D03*
X75480000Y-81850000D03*
X72940000Y-81850000D03*
X70400000Y-81850000D03*
X67860000Y-81850000D03*
X65320000Y-81850000D03*
X62780000Y-81850000D03*
X60240000Y-81850000D03*
X60240000Y-107250000D03*
X62780000Y-107250000D03*
X65320000Y-107250000D03*
X67860000Y-107250000D03*
X70400000Y-107250000D03*
X72940000Y-107250000D03*
X75480000Y-107250000D03*
X78020000Y-107250000D03*
X80560000Y-107250000D03*
X83100000Y-107250000D03*
X85640000Y-107250000D03*
X88180000Y-107250000D03*
X90720000Y-107250000D03*
X93260000Y-107250000D03*
X95800000Y-107250000D03*
%TD*%
D13*
%TO.C,U2*%
X281235000Y-95770000D03*
D14*
X281235000Y-94500000D03*
X281235000Y-93230000D03*
%TD*%
D15*
%TO.C,J1*%
X134250000Y-84150000D03*
D16*
X134250000Y-86690000D03*
%TD*%
M02*
